<svg width="56" height="56" viewBox="0 0 56 56" fill="none" xmlns="http://www.w3.org/2000/svg">
<g clip-path="url(#clip0_184_2777)">
<circle cx="28" cy="28" r="28" fill="#EBF0FC"/>
<path d="M17.0435 24.8065H15C14.4477 24.8065 14 25.2542 14 25.8065V33.7419C14 34.2942 14.4477 34.7419 15 34.7419H15.2174M17.0435 24.8065L20.1565 18.1525C20.4855 17.4493 21.1917 17 21.968 17H34.032C34.8083 17 35.5145 17.4493 35.8435 18.1525L38.9565 24.8065M17.0435 24.8065H38.9565M38.9565 24.8065H41C41.5523 24.8065 42 25.2542 42 25.8065V33.7419C42 34.2942 41.5523 34.7419 41 34.7419H40.7826M18.8696 34.7419V37.1739C18.8696 38.1824 18.052 39 17.0435 39V39C16.035 39 15.2174 38.1824 15.2174 37.1739V34.7419M18.8696 34.7419H15.2174M18.8696 34.7419H37.1304M40.7826 34.7419V37.1739C40.7826 38.1824 39.965 39 38.9565 39V39C37.948 39 37.1304 38.1824 37.1304 37.1739V34.7419M40.7826 34.7419H37.1304" stroke="#0B0B0B" stroke-linecap="round"/>
<ellipse cx="18.8697" cy="30.2001" rx="1.21739" ry="1.46667" fill="#0B0B0B"/>
<ellipse cx="37.1305" cy="30.2001" rx="1.21739" ry="1.46667" fill="#0B0B0B"/>
<circle cx="35" cy="17" r="2.5" fill="#2156F2" stroke="#EBF0FC"/>
</g>
<defs>
<clipPath id="clip0_184_2777">
<rect width="56" height="56" fill="white"/>
</clipPath>
</defs>
</svg>
