<svg width="56" height="56" viewBox="0 0 56 56" fill="none" xmlns="http://www.w3.org/2000/svg">
<g clip-path="url(#clip0_184_2800)">
<circle cx="28" cy="28" r="28" fill="#EBF0FC"/>
<path d="M33.7896 27.2308C36.1142 27.2308 38.0001 25.1646 38.0001 22.6154C38.0001 20.0662 36.1142 18 33.7896 18C31.4651 18 29.5791 20.0662 29.5791 22.6154C29.5791 25.1646 31.4651 27.2308 33.7896 27.2308Z" stroke="#0B0B0B" stroke-linecap="round" stroke-linejoin="round"/>
<path d="M33.7891 27.231V38.0002" stroke="#0B0B0B" stroke-linecap="round" stroke-linejoin="round"/>
<path d="M22.3867 18V38" stroke="#0B0B0B" stroke-linecap="round" stroke-linejoin="round"/>
<path d="M26.7719 18V21.8462C26.7719 22.3512 26.6584 22.8514 26.438 23.318C26.2176 23.7846 25.8945 24.2086 25.4873 24.5658C25.08 24.9229 24.5965 25.2062 24.0644 25.3995C23.5322 25.5928 22.9619 25.6923 22.3859 25.6923C21.2227 25.6923 20.1071 25.2871 19.2846 24.5658C18.4621 23.8445 18 22.8662 18 21.8462V18" stroke="#0B0B0B" stroke-linecap="round" stroke-linejoin="round"/>
<circle cx="38" cy="19" r="2.5" fill="#2156F2" stroke="#EBF0FC"/>
</g>
<defs>
<clipPath id="clip0_184_2800">
<rect width="56" height="56" fill="white"/>
</clipPath>
</defs>
</svg>
