<svg width="56" height="56" viewBox="0 0 56 56" fill="none" xmlns="http://www.w3.org/2000/svg">
<g clip-path="url(#clip0_184_2703)">
<circle cx="28" cy="28" r="28" fill="#EBF0FC"/>
<path d="M31.3202 34.577H24.3722C22.9474 34.577 21.5809 34.011 20.5735 33.0036C19.566 31.9961 19 30.6296 19 29.2049V23.9831C19 23.5082 19.1887 23.0527 19.5245 22.7169C19.8603 22.381 20.3158 22.1924 20.7907 22.1924H34.9016C35.3766 22.1924 35.832 22.381 36.1679 22.7169C36.5037 23.0527 36.6923 23.5082 36.6923 23.9831V29.2049C36.6923 30.6296 36.1264 31.9961 35.1189 33.0036C34.1114 34.011 32.745 34.577 31.3202 34.577Z" stroke="#0B0B0B" stroke-linecap="round" stroke-linejoin="round"/>
<path d="M23.4229 22.1923V16" stroke="#0B0B0B" stroke-linecap="round" stroke-linejoin="round"/>
<path d="M32.2705 22.1923V16" stroke="#0B0B0B" stroke-linecap="round" stroke-linejoin="round"/>
<path d="M27.8477 34.5767V38.9997" stroke="#0B0B0B" stroke-linecap="round" stroke-linejoin="round"/>
<circle cx="36" cy="34" r="2.5" fill="#2156F2" stroke="#EBF0FC"/>
</g>
<defs>
<clipPath id="clip0_184_2703">
<rect width="56" height="56" fill="white"/>
</clipPath>
</defs>
</svg>
