<svg width="56" height="56" viewBox="0 0 56 56" fill="none" xmlns="http://www.w3.org/2000/svg">
<g clip-path="url(#clip0_184_2734)">
<circle cx="28" cy="28" r="28" fill="#EBF0FC"/>
<path d="M28.1714 40C27.3321 38.5501 23.2032 36.0686 16.8497 34.9501C16.3629 34.8644 16 34.4455 16 33.9512V17.0856C16 16.501 16.4975 16.0414 17.0765 16.1227C20.1776 16.5587 25.8483 17.9788 28.1714 21.1892M28.1714 40V21.1892M28.1714 40C29.6152 38.1677 33.7003 35.1852 39.0002 34.8431C39.5514 34.8075 40 34.3631 40 33.8108V17C40 16.4477 39.5537 15.9988 39.0031 16.0415C36.0604 16.2698 30.9744 17.5003 28.1714 21.1892" stroke="#0B0B0B" stroke-linejoin="round"/>
<circle cx="40" cy="16" r="2.5" fill="#2156F2" stroke="#EBF0FC"/>
</g>
<defs>
<clipPath id="clip0_184_2734">
<rect width="56" height="56" fill="white"/>
</clipPath>
</defs>
</svg>
