<svg width="56" height="56" viewBox="0 0 56 56" fill="none" xmlns="http://www.w3.org/2000/svg">
<g clip-path="url(#clip0_184_2761)">
<circle cx="28" cy="28" r="28" fill="#EBF0FC"/>
<path d="M19 22.6665H25" stroke="#0B0B0B" stroke-linecap="round" stroke-linejoin="round"/>
<path d="M22 19.8096V25.5239" stroke="#0B0B0B" stroke-linecap="round" stroke-linejoin="round"/>
<path d="M34.228 16H22.0955V16.0107C21.0952 15.9467 20.0977 16.1841 19.201 16.6995C18.3042 17.215 17.5391 17.9908 16.9806 18.9507C16.4222 19.9107 16.0897 21.0218 16.0157 22.175C15.9418 23.3281 16.129 24.4836 16.559 25.528C16.9889 26.5724 17.6468 27.4697 18.4681 28.1319C19.2893 28.7941 20.2457 29.1983 21.2432 29.3049C22.2407 29.4115 23.2451 29.2168 24.1577 28.7399C25.0703 28.263 25.8598 27.5203 26.4485 26.5848H29.5518C30.1326 27.5076 30.9089 28.2429 31.8063 28.7205C32.7038 29.198 33.6924 29.4018 34.6775 29.3123C35.6627 29.2228 36.6115 28.843 37.4332 28.2093C38.2548 27.5756 38.9219 26.7092 39.3705 25.6929C39.8191 24.6766 40.0343 23.5444 39.9955 22.4046C39.9567 21.2649 39.6652 20.1557 39.1489 19.1832C38.6325 18.2106 37.9086 17.4073 37.0464 16.8499C36.1842 16.2926 35.2125 16 34.2243 16H34.228Z" stroke="#0B0B0B" stroke-linecap="round" stroke-linejoin="round"/>
<path d="M32.4721 24.9731C32.349 24.9731 32.2309 24.9167 32.1438 24.8162C32.0567 24.7157 32.0078 24.5794 32.0078 24.4373C32.0078 24.2951 32.0567 24.1588 32.1438 24.0583C32.2309 23.9578 32.349 23.9014 32.4721 23.9014" stroke="#0B0B0B" stroke-linecap="round" stroke-linejoin="round"/>
<path d="M32.4727 24.9731C32.5958 24.9731 32.7139 24.9167 32.801 24.8162C32.888 24.7157 32.9369 24.5794 32.9369 24.4373C32.9369 24.2951 32.888 24.1588 32.801 24.0583C32.7139 23.9578 32.5958 23.9014 32.4727 23.9014" stroke="#0B0B0B" stroke-linecap="round" stroke-linejoin="round"/>
<path d="M35.6049 21.2217C35.4818 21.2217 35.3637 21.1652 35.2766 21.0647C35.1895 20.9642 35.1406 20.8279 35.1406 20.6858C35.1406 20.5437 35.1895 20.4074 35.2766 20.3069C35.3637 20.2064 35.4818 20.1499 35.6049 20.1499" stroke="#0B0B0B" stroke-linecap="round" stroke-linejoin="round"/>
<path d="M35.6055 21.2217C35.7286 21.2217 35.8467 21.1652 35.9338 21.0647C36.0208 20.9642 36.0697 20.8279 36.0697 20.6858C36.0697 20.5437 36.0208 20.4074 35.9338 20.3069C35.8467 20.2064 35.7286 20.1499 35.6055 20.1499" stroke="#0B0B0B" stroke-linecap="round" stroke-linejoin="round"/>
<path d="M36 37C34.9989 37.9947 32 40 28 40C24 40 21.0011 37.9979 20 37" stroke="#0B0B0B" stroke-linecap="round" stroke-linejoin="round"/>
<path d="M32 33C31.3333 33.6653 29.5983 35 28 35C26.4017 35 24.6667 33.6653 24 33" stroke="#0B0B0B" stroke-linecap="round" stroke-linejoin="round"/>
<circle cx="37" cy="17" r="2.5" fill="#2156F2" stroke="#EBF0FC"/>
</g>
<defs>
<clipPath id="clip0_184_2761">
<rect width="56" height="56" fill="white"/>
</clipPath>
</defs>
</svg>
