<svg width="112" height="112" viewBox="0 0 112 112" fill="none" xmlns="http://www.w3.org/2000/svg">
<g id="user-circle-single--circle-geometric-human-person-single-user">
<path id="Vector_3" d="M55.9994 111.714C70.7758 111.714 84.9469 105.844 95.3954 95.3954C105.844 84.9469 111.714 70.7758 111.714 55.9994C111.714 41.2231 105.844 27.0519 95.3954 16.6035C84.9469 6.15504 70.7758 0.285156 55.9994 0.285156C41.2231 0.285156 27.0519 6.15504 16.6035 16.6035C6.15504 27.0519 0.285156 41.2231 0.285156 55.9994C0.285156 70.7758 6.15504 84.9469 16.6035 95.3954C27.0519 105.844 41.2231 111.714 55.9994 111.714Z" fill="#E5E7EB"/>
<path id="Vector" d="M55.9989 64.5681C61.6821 64.5681 67.1325 62.3104 71.1512 58.2918C75.1698 54.2732 77.4275 48.8227 77.4275 43.1395C77.4275 37.4563 75.1698 32.0059 71.1512 27.9872C67.1325 23.9686 61.6821 21.7109 55.9989 21.7109C50.3157 21.7109 44.8652 23.9686 40.8466 27.9872C36.828 32.0059 34.5703 37.4563 34.5703 43.1395C34.5703 48.8227 36.828 54.2732 40.8466 58.2918C44.8652 62.3104 50.3157 64.5681 55.9989 64.5681Z" fill="#FDFDFD"/>
<g id="Mask group">
<mask id="mask0_210_6220" style="mask-type:alpha" maskUnits="userSpaceOnUse" x="0" y="0" width="112" height="112">
<path id="Vector_3_2" d="M55.9994 111.714C70.7758 111.714 84.9469 105.844 95.3954 95.3954C105.844 84.9469 111.714 70.7758 111.714 55.9994C111.714 41.2231 105.844 27.0519 95.3954 16.6035C84.9469 6.15504 70.7758 0.285156 55.9994 0.285156C41.2231 0.285156 27.0519 6.15504 16.6035 16.6035C6.15504 27.0519 0.285156 41.2231 0.285156 55.9994C0.285156 70.7758 6.15504 84.9469 16.6035 95.3954C27.0519 105.844 41.2231 111.714 55.9994 111.714Z" fill="#E5E7EB"/>
</mask>
<g mask="url(#mask0_210_6220)">
<g id="Vector_2">
<path d="M19.4004 97.9972C23.2253 91.7188 28.601 86.5299 35.0107 82.9293C41.4204 79.3287 48.6486 77.4375 56.0004 77.4375C63.3522 77.4375 70.5803 79.3287 76.99 82.9293C83.3998 86.5299 88.7755 91.7188 92.6004 97.9972" fill="#FDFDFD"/>
<path d="M19.4004 97.9972C23.2253 91.7188 28.601 86.5299 35.0107 82.9293C41.4204 79.3287 48.6486 77.4375 56.0004 77.4375C63.3522 77.4375 70.5803 79.3287 76.99 82.9293C83.3998 86.5299 88.7755 91.7188 92.6004 97.9972C93 104.498 72.7921 116.498 56.0004 116.498C39.2087 116.498 19.4004 102.998 19.4004 97.9972Z" fill="#FDFDFD"/>
</g>
</g>
</g>
</g>
</svg>
