<svg width="36" height="36" viewBox="0 0 36 36" fill="none" xmlns="http://www.w3.org/2000/svg">
<g clip-path="url(#clip0_209_14)">
<path d="M17.9999 34.7143C22.4328 34.7143 26.6842 32.9533 29.8187 29.8188C32.9533 26.6842 34.7142 22.4329 34.7142 18C34.7142 13.5671 32.9533 9.31574 29.8187 6.18121C26.6842 3.04667 22.4328 1.28571 17.9999 1.28571C13.567 1.28571 9.31568 3.04667 6.18115 6.18121C3.04661 9.31574 1.28564 13.5671 1.28564 18C1.28564 22.4329 3.04661 26.6842 6.18115 29.8188C9.31568 32.9533 13.567 34.7143 17.9999 34.7143Z" stroke="#797979" stroke-width="1.5" stroke-linecap="round" stroke-linejoin="round"/>
<path d="M10.2856 24.4286C11.4376 20.7566 15.8142 18.5143 20.1856 19.5326C21.4365 19.8361 22.5941 20.4409 23.5577 21.2942C24.5213 22.1476 25.2617 23.2236 25.7142 24.4286" stroke="#797979" stroke-width="1.5" stroke-linecap="round" stroke-linejoin="round"/>
<path d="M9.76367 13.8266C10.0002 13.3663 10.7408 12.5486 11.5971 12.0523C12.4534 11.5586 13.5334 11.3271 14.0502 11.3528" stroke="#797979" stroke-width="1.5" stroke-linecap="round" stroke-linejoin="round"/>
<path d="M21.9497 11.3477C22.4666 11.322 23.544 11.5534 24.4028 12.0497C25.2591 12.5434 25.9997 13.3611 26.2363 13.824" stroke="#797979" stroke-width="1.5" stroke-linecap="round" stroke-linejoin="round"/>
</g>
<defs>
<clipPath id="clip0_209_14">
<rect width="36" height="36" fill="white"/>
</clipPath>
</defs>
</svg>
