<svg width="36" height="36" viewBox="0 0 36 36" fill="none" xmlns="http://www.w3.org/2000/svg">
<g clip-path="url(#clip0_209_4)">
<path d="M17.9999 34.7143C22.4328 34.7143 26.6842 32.9533 29.8187 29.8188C32.9533 26.6843 34.7142 22.4329 34.7142 18C34.7142 13.5671 32.9533 9.31576 29.8187 6.18122C26.6842 3.04669 22.4328 1.28572 17.9999 1.28572C13.567 1.28572 9.31568 3.04669 6.18115 6.18122C3.04661 9.31576 1.28564 13.5671 1.28564 18C1.28564 22.4329 3.04661 26.6843 6.18115 29.8188C9.31568 32.9533 13.567 34.7143 17.9999 34.7143Z" stroke="#2156F2" stroke-width="1.5" stroke-linecap="round" stroke-linejoin="round"/>
<path d="M12.2141 12.8572C12.0436 12.8572 11.8801 12.7894 11.7596 12.6689C11.639 12.5483 11.5713 12.3848 11.5713 12.2143C11.5713 12.0438 11.639 11.8803 11.7596 11.7597C11.8801 11.6392 12.0436 11.5714 12.2141 11.5714" stroke="#2156F2" stroke-width="1.5" stroke-linecap="round" stroke-linejoin="round"/>
<path d="M12.2141 12.8572C12.3846 12.8572 12.5481 12.7894 12.6687 12.6689C12.7892 12.5483 12.857 12.3848 12.857 12.2143C12.857 12.0438 12.7892 11.8803 12.6687 11.7597C12.5481 11.6392 12.3846 11.5714 12.2141 11.5714" stroke="#2156F2" stroke-width="1.5" stroke-linecap="round" stroke-linejoin="round"/>
<path d="M23.7857 12.8572C23.6152 12.8572 23.4517 12.7894 23.3311 12.6689C23.2106 12.5483 23.1428 12.3848 23.1428 12.2143C23.1428 12.0438 23.2106 11.8803 23.3311 11.7597C23.4517 11.6392 23.6152 11.5714 23.7857 11.5714" stroke="#2156F2" stroke-width="1.5" stroke-linecap="round" stroke-linejoin="round"/>
<path d="M23.7856 12.8572C23.9561 12.8572 24.1197 12.7894 24.2402 12.6689C24.3608 12.5483 24.4285 12.3848 24.4285 12.2143C24.4285 12.0438 24.3608 11.8803 24.2402 11.7597C24.1197 11.6392 23.9561 11.5714 23.7856 11.5714" stroke="#2156F2" stroke-width="1.5" stroke-linecap="round" stroke-linejoin="round"/>
<path d="M18 28.2857C20.3869 28.2857 22.6761 27.3375 24.364 25.6497C26.0518 23.9619 27 21.6727 27 19.2857H9C9 21.6727 9.94821 23.9619 11.636 25.6497C13.3239 27.3375 15.6131 28.2857 18 28.2857Z" stroke="#2156F2" stroke-width="1.5" stroke-linecap="round" stroke-linejoin="round"/>
</g>
<defs>
<clipPath id="clip0_209_4">
<rect width="36" height="36" fill="white"/>
</clipPath>
</defs>
</svg>
