<svg width="48" height="48" viewBox="0 0 48 48" fill="none" xmlns="http://www.w3.org/2000/svg">
<g clip-path="url(#clip0_204_6)">
<path d="M0 24C0 30.3652 2.52856 36.4697 7.02944 40.9706C11.5303 45.4714 17.6348 48 24 48C30.3652 48 36.4697 45.4714 40.9706 40.9706C45.4714 36.4697 48 30.3652 48 24C48 17.6348 45.4714 11.5303 40.9706 7.02944C36.4697 2.52856 30.3652 0 24 0C17.6348 0 11.5303 2.52856 7.02944 7.02944C2.52856 11.5303 0 17.6348 0 24Z" fill="#8FBFFA"/>
<path d="M15.4286 17.1429C15.4286 19.4161 16.3316 21.5963 17.9391 23.2038C19.5466 24.8112 21.7267 25.7143 24 25.7143C26.2733 25.7143 28.4535 24.8112 30.0609 23.2038C31.6684 21.5963 32.5714 19.4161 32.5714 17.1429C32.5714 14.8696 31.6684 12.6894 30.0609 11.0819C28.4535 9.47449 26.2733 8.57143 24 8.57143C21.7267 8.57143 19.5466 9.47449 17.9391 11.0819C16.3316 12.6894 15.4286 14.8696 15.4286 17.1429Z" fill="#2859C5"/>
<path d="M38.5474 36C36.7798 33.8532 34.5585 32.1249 32.0431 30.9392C29.5277 29.7535 26.7808 29.14 24 29.1429C21.2192 29.14 18.4723 29.7535 15.9569 30.9392C13.4415 32.1249 11.2202 33.8532 9.45258 36C11.2202 38.1468 13.4415 39.8751 15.9569 41.0608C18.4723 42.2465 21.2192 42.86 24 42.8571C26.7808 42.86 29.5277 42.2465 32.0431 41.0608C34.5585 39.8751 36.7798 38.1468 38.5474 36Z" fill="#2859C5"/>
</g>
<defs>
<clipPath id="clip0_204_6">
<rect width="48" height="48" fill="white"/>
</clipPath>
</defs>
</svg>
