<svg width="13" height="14" viewBox="0 0 13 14" fill="none" xmlns="http://www.w3.org/2000/svg">
<g clip-path="url(#clip0_446_7918)">
<path d="M0 2C0 0.89543 0.895431 0 2 0H11C12.1046 0 13 0.895431 13 2V14H0V2Z" fill="#2156F2"/>
<path d="M6.468 11.108C6.02 11.108 5.564 11.048 5.1 10.928C4.636 10.8 4.232 10.612 3.888 10.364C3.76 10.284 3.672 10.188 3.624 10.076C3.584 9.956 3.576 9.848 3.6 9.752C3.624 9.648 3.672 9.56 3.744 9.488C3.824 9.416 3.92 9.376 4.032 9.368C4.144 9.352 4.268 9.384 4.404 9.464C4.748 9.672 5.084 9.824 5.412 9.92C5.74 10.008 6.08 10.052 6.432 10.052C6.816 10.052 7.14 9.996 7.404 9.884C7.668 9.772 7.864 9.608 7.992 9.392C8.128 9.176 8.196 8.916 8.196 8.612C8.196 8.156 8.044 7.816 7.74 7.592C7.444 7.36 7.012 7.244 6.444 7.244H5.628C5.444 7.244 5.304 7.2 5.208 7.112C5.112 7.016 5.064 6.884 5.064 6.716C5.064 6.556 5.112 6.432 5.208 6.344C5.304 6.248 5.444 6.2 5.628 6.2H6.324C6.668 6.2 6.96 6.144 7.2 6.032C7.44 5.912 7.624 5.748 7.752 5.54C7.888 5.324 7.956 5.064 7.956 4.76C7.956 4.352 7.82 4.04 7.548 3.824C7.284 3.6 6.896 3.488 6.384 3.488C6.056 3.488 5.744 3.532 5.448 3.62C5.16 3.708 4.86 3.864 4.548 4.088C4.428 4.168 4.312 4.204 4.2 4.196C4.096 4.18 4.004 4.14 3.924 4.076C3.852 4.004 3.8 3.916 3.768 3.812C3.744 3.708 3.752 3.6 3.792 3.488C3.832 3.376 3.912 3.28 4.032 3.2C4.368 2.952 4.748 2.764 5.172 2.636C5.596 2.5 6.032 2.432 6.48 2.432C7.04 2.432 7.52 2.52 7.92 2.696C8.328 2.872 8.636 3.124 8.844 3.452C9.06 3.78 9.168 4.172 9.168 4.628C9.168 4.972 9.104 5.284 8.976 5.564C8.848 5.844 8.664 6.084 8.424 6.284C8.192 6.476 7.908 6.612 7.572 6.692V6.56C8.156 6.656 8.608 6.896 8.928 7.28C9.248 7.656 9.408 8.128 9.408 8.696C9.408 9.192 9.288 9.624 9.048 9.992C8.816 10.352 8.48 10.628 8.04 10.82C7.6 11.012 7.076 11.108 6.468 11.108Z" fill="#FDFDFD"/>
</g>
<defs>
<clipPath id="clip0_446_7918">
<rect width="13" height="14" fill="white"/>
</clipPath>
</defs>
</svg>
