<svg width="24" height="24" viewBox="0 0 24 24" fill="none" xmlns="http://www.w3.org/2000/svg">
<g clip-path="url(#clip0_446_6473)">
<path d="M12 20C14.1217 20 16.1566 19.1571 17.6569 17.6569C19.1571 16.1566 20 14.1217 20 12C20 9.87827 19.1571 7.84344 17.6569 6.34315C16.1566 4.84285 14.1217 4 12 4C9.87827 4 7.84344 4.84285 6.34315 6.34315C4.84285 7.84344 4 9.87827 4 12C4 14.1217 4.84285 16.1566 6.34315 17.6569C7.84344 19.1571 9.87827 20 12 20Z" stroke="#797979" stroke-linecap="round" stroke-linejoin="round"/>
<path d="M8.30859 15.0783C8.85998 13.3208 10.9547 12.2475 13.0471 12.7349C13.6457 12.8802 14.1998 13.1697 14.661 13.5781C15.1223 13.9866 15.4766 14.5016 15.6932 15.0783" stroke="#797979" stroke-linecap="round" stroke-linejoin="round"/>
<path d="M8.05859 10.0033C8.17182 9.78297 8.52629 9.39159 8.93613 9.15405C9.34598 8.91774 9.8629 8.80697 10.1103 8.81928" stroke="#797979" stroke-linecap="round" stroke-linejoin="round"/>
<path d="M13.8906 8.81538C14.138 8.80307 14.6537 8.91384 15.0648 9.15138C15.4746 9.38768 15.8291 9.77907 15.9423 10.0006" stroke="#797979" stroke-linecap="round" stroke-linejoin="round"/>
</g>
<defs>
<clipPath id="clip0_446_6473">
<rect width="24" height="24" fill="white"/>
</clipPath>
</defs>
</svg>
