<svg width="44" height="24" viewBox="0 0 44 24" fill="none" xmlns="http://www.w3.org/2000/svg">
<path d="M17.1687 6.03125C19.2 6.03125 20.6141 7.125 20.6219 8.78125C20.6141 10.2188 19.4969 11.25 17.825 11.4609V12.8203C19.1219 12.75 20.4422 12.6328 21.6531 12.4531L21.7469 13.375C18.8016 13.8984 15.4734 13.9453 13.075 13.9375L12.9187 12.9219C13.9969 12.9297 15.2625 12.9219 16.5906 12.875V11.4688C14.8719 11.2812 13.7234 10.2422 13.7312 8.78125C13.7234 7.125 15.1375 6.03125 17.1687 6.03125ZM14.8875 8.78125C14.8719 9.83594 15.8172 10.5547 17.1687 10.5625C18.5281 10.5547 19.4578 9.83594 19.4656 8.78125C19.4578 7.70312 18.5281 6.98438 17.1687 6.98438C15.8172 6.98438 14.8719 7.70312 14.8875 8.78125ZM14.95 18.9531V15.0938H16.1844V17.9219H24.2781V18.9531H14.95ZM22.5437 16.0156V5.39062H23.7781V10.0938H25.8562V11.1406H23.7781V16.0156H22.5437ZM39.0813 16.5156V17.5469H26.3625V16.5156H29.9406V13.875H27.9563V9.59375H36.2688V7.42188H27.925V6.40625H37.4719V10.6094H29.175V12.8594H37.8V13.875H35.6281V16.5156H39.0813ZM31.1438 16.5156H34.425V13.875H31.1438V16.5156Z" fill="#101010"/>
</svg>
