<svg width="103" height="40" viewBox="0 0 103 40" fill="none" xmlns="http://www.w3.org/2000/svg">
<path d="M0 0H95C99.4183 0 103 3.58172 103 8V32C103 36.4183 99.4183 40 95 40H8C3.58172 40 0 36.4183 0 32V0Z" fill="#F2F2F2"/>
<path d="M25.5664 19.873V20.748H14.4922V19.873H25.5664ZM15.7227 16.5781C15.7227 15.1357 17.3838 14.2676 20.0293 14.2676C22.6611 14.2676 24.3154 15.1357 24.3223 16.5781C24.3154 18.0273 22.6611 18.8818 20.0293 18.875C17.3838 18.8818 15.7227 18.0273 15.7227 16.5781ZM15.832 23.9336C15.8252 22.5459 17.3906 21.7734 20.0293 21.7871C22.6338 21.7734 24.1992 22.5459 24.2129 23.9336C24.1992 25.3418 22.6338 26.1143 20.0293 26.1074C17.3906 26.1143 15.8252 25.3418 15.832 23.9336ZM16.8301 16.5781C16.8232 17.4873 18.0605 18.0273 20.0293 18.0273C21.9775 18.0273 23.2217 17.4873 23.2285 16.5781C23.2217 15.6689 21.9775 15.1289 20.0293 15.1426C18.0605 15.1289 16.8232 15.6689 16.8301 16.5781ZM16.9258 23.9336C16.9121 24.7744 18.0811 25.2598 20.0293 25.2461C21.957 25.2598 23.126 24.7744 23.1328 23.9336C23.126 23.0859 21.957 22.6006 20.0293 22.6074C18.0811 22.6006 16.9121 23.0859 16.9258 23.9336ZM35.7437 13.9531V16.8105H37.5758V17.7129H35.7437V20.4336H34.6773V13.9531H35.7437ZM26.816 20.0234V14.7598H32.2027V15.6484H27.8824V19.1211C30.3229 19.1211 31.7105 19.0459 33.3375 18.7109L33.4742 19.5996C31.7652 19.9414 30.316 20.0234 27.7594 20.0234H26.816ZM28.0465 25.9023V21.0898H29.1129V22.6074H34.6773V21.0898H35.7437V25.9023H28.0465ZM29.1129 25.0137H34.6773V23.4688H29.1129V25.0137ZM48.0129 13.9531V26.1348H46.9328V13.9531H48.0129ZM38.4426 19.1348C38.4494 16.5508 39.7346 14.9033 41.5461 14.8965C43.3508 14.9033 44.6564 16.5508 44.6496 19.1348C44.6564 21.7256 43.3508 23.3662 41.5461 23.3594C39.7346 23.3662 38.4494 21.7256 38.4426 19.1348ZM39.4816 19.1348C39.4816 21.1104 40.3293 22.4092 41.5461 22.4023C42.7697 22.4092 43.6105 21.1104 43.6105 19.1348C43.6105 17.1592 42.7697 15.8604 41.5461 15.8535C40.3293 15.8604 39.4816 17.1592 39.4816 19.1348ZM62.7074 13.9531V16.6328H64.2523V17.5352H62.7074V20.3926H61.6684V13.9531H62.7074ZM53.2602 19.7227V14.5547H54.1625V16.2637H55.598V14.5547H56.5004V19.7227H53.2602ZM54.1625 18.875H55.598V17.1113H54.1625V18.875ZM54.7367 21.7734V20.9121H62.7074V23.7559H55.8305V25.0957H63.1586V25.9707H54.7777V22.9492H61.6684V21.7734H54.7367ZM57.2797 19.7227V14.5547H58.1957V16.2637H59.6312V14.5547H60.5336V19.7227H57.2797ZM58.1957 18.875H59.6312V17.1113H58.1957V18.875ZM74.0605 13.9531V18.793H76.0977V19.6953H74.0605V26.1348H72.9941V13.9531H74.0605ZM65.1328 15.9766V15.0879H70.6562V19.4355H66.2266V22.2793C68.4824 22.2861 70.0615 22.1973 71.9004 21.8555L72.0098 22.7441C70.0957 23.0928 68.4756 23.1816 66.1309 23.1953H65.1602V18.5469H69.5898V15.9766H65.1328ZM87.5328 23.6465V24.5488H76.4039V23.6465H79.1656V20.3721C78.1266 19.832 77.4977 18.957 77.4977 17.8496C77.4977 15.9697 79.3434 14.7324 81.941 14.7188C84.5387 14.7324 86.3844 15.9697 86.3844 17.8496C86.3844 18.9365 85.776 19.7979 84.7711 20.3379V23.6465H87.5328ZM78.5367 17.8496C78.5299 19.21 79.9449 20.1191 81.941 20.1191C83.9166 20.1191 85.3453 19.21 85.3453 17.8496C85.3453 16.4893 83.9166 15.5938 81.941 15.6074C79.9449 15.5938 78.5299 16.4893 78.5367 17.8496ZM80.2184 23.6465H83.691V20.7549C83.1646 20.8916 82.5768 20.9668 81.941 20.9668C81.3189 20.9668 80.7379 20.8984 80.2184 20.7617V23.6465Z" fill="#101010"/>
</svg>
