<svg width="24" height="24" viewBox="0 0 24 24" fill="none" xmlns="http://www.w3.org/2000/svg">
<g clip-path="url(#clip0_446_6462)">
<path d="M12 20C14.1217 20 16.1566 19.1571 17.6569 17.6569C19.1571 16.1566 20 14.1217 20 12C20 9.87827 19.1571 7.84344 17.6569 6.34315C16.1566 4.84285 14.1217 4 12 4C9.87827 4 7.84344 4.84285 6.34315 6.34315C4.84285 7.84344 4 9.87827 4 12C4 14.1217 4.84285 16.1566 6.34315 17.6569C7.84344 19.1571 9.87827 20 12 20Z" stroke="#797979" stroke-linecap="round" stroke-linejoin="round"/>
<path d="M9.23738 9.53921C9.15577 9.53921 9.07751 9.5068 9.01981 9.44909C8.9621 9.39139 8.92969 9.31313 8.92969 9.23152C8.92969 9.14992 8.9621 9.07165 9.01981 9.01395C9.07751 8.95625 9.15577 8.92383 9.23738 8.92383" stroke="#797979" stroke-linecap="round" stroke-linejoin="round"/>
<path d="M9.23828 9.53921C9.31989 9.53921 9.39815 9.5068 9.45585 9.44909C9.51356 9.39139 9.54597 9.31313 9.54597 9.23152C9.54597 9.14992 9.51356 9.07165 9.45585 9.01395C9.39815 8.95625 9.31989 8.92383 9.23828 8.92383" stroke="#797979" stroke-linecap="round" stroke-linejoin="round"/>
<path d="M14.7725 9.53921C14.6909 9.53921 14.6127 9.5068 14.555 9.44909C14.4973 9.39139 14.4648 9.31313 14.4648 9.23152C14.4648 9.14992 14.4973 9.07165 14.555 9.01395C14.6127 8.95625 14.6909 8.92383 14.7725 8.92383" stroke="#797979" stroke-linecap="round" stroke-linejoin="round"/>
<path d="M14.7734 9.53921C14.855 9.53921 14.9333 9.5068 14.991 9.44909C15.0487 9.39139 15.0811 9.31313 15.0811 9.23152C15.0811 9.14992 15.0487 9.07165 14.991 9.01395C14.9333 8.95625 14.855 8.92383 14.7734 8.92383" stroke="#797979" stroke-linecap="round" stroke-linejoin="round"/>
<path d="M12.003 16.9249C13.1455 16.9249 14.2412 16.471 15.049 15.6632C15.8569 14.8553 16.3107 13.7597 16.3107 12.6172H7.69531C7.69531 13.7597 8.14916 14.8553 8.95701 15.6632C9.76486 16.471 10.8605 16.9249 12.003 16.9249Z" stroke="#797979" stroke-linecap="round" stroke-linejoin="round"/>
</g>
<defs>
<clipPath id="clip0_446_6462">
<rect width="24" height="24" fill="white"/>
</clipPath>
</defs>
</svg>
