<svg width="24" height="24" viewBox="0 0 24 24" fill="none" xmlns="http://www.w3.org/2000/svg">
<g clip-path="url(#clip0_438_7458)">
<path d="M5.71484 9.71484H18.2863V17.7148C18.2863 18.0179 18.1659 18.3086 17.9515 18.523C17.7372 18.7373 17.4465 18.8577 17.1434 18.8577H6.8577C6.5546 18.8577 6.26391 18.7373 6.04958 18.523C5.83525 18.3086 5.71484 18.0179 5.71484 17.7148V9.71484Z" stroke="#101010" stroke-width="1.2" stroke-linecap="round" stroke-linejoin="round"/>
<path d="M19.4275 8.57115V6.28544C19.4275 5.98233 19.307 5.69164 19.0927 5.47731C18.8784 5.26299 18.5877 5.14258 18.2846 5.14258H5.71317C5.41007 5.14258 5.11937 5.26299 4.90505 5.47731C4.69072 5.69164 4.57031 5.98233 4.57031 6.28544V8.57115C4.57031 8.87425 4.69072 9.16494 4.90505 9.37927C5.11937 9.5936 5.41007 9.71401 5.71317 9.71401H18.2846C18.5877 9.71401 18.8784 9.5936 19.0927 9.37927C19.307 9.16494 19.4275 8.87425 19.4275 8.57115Z" stroke="#101010" stroke-width="1.2" stroke-linecap="round" stroke-linejoin="round"/>
<path d="M10.2852 13.1426H13.7137" stroke="#101010" stroke-width="1.2" stroke-linecap="round" stroke-linejoin="round"/>
</g>
<defs>
<clipPath id="clip0_438_7458">
<rect width="16" height="16" fill="white" transform="translate(4 4)"/>
</clipPath>
</defs>
</svg>
