<svg width="42" height="17" viewBox="0 0 42 17" fill="none" xmlns="http://www.w3.org/2000/svg">
<g clip-path="url(#clip0_446_7540)">
<rect width="42" height="17" rx="8" fill="#2156F2" fill-opacity="0.08"/>
<path d="M16.3066 4.60742C18.1768 4.6123 19.5391 5.53516 19.5391 6.93164C19.5391 8.24023 18.3965 9.11426 16.7656 9.24609V10.9648H20.3301V11.7363H12.3223V10.9648H15.8477V9.24609C14.2266 9.11426 13.0791 8.24023 13.084 6.93164C13.0791 5.53516 14.4463 4.6123 16.3066 4.60742ZM13.9824 6.93164C13.9824 7.91309 14.959 8.52344 16.3066 8.5332C17.6641 8.52344 18.6357 7.91309 18.6406 6.93164C18.6357 5.98438 17.6641 5.35938 16.3066 5.36914C14.959 5.35938 13.9824 5.98438 13.9824 6.93164ZM25.793 4.94922V5.71094H24.8359V9.82715C25.251 9.79785 25.6562 9.75879 26.0469 9.71484L26.1055 10.3984C24.3232 10.6816 22.2725 10.7207 20.7539 10.7207L20.6562 9.94922L21.7695 9.93457V5.71094H20.9199V4.94922H25.793ZM22.6777 9.91992C23.0928 9.91016 23.5225 9.89551 23.9473 9.87598V5.71094H22.6777V9.91992ZM25.5098 8.10352V7.3418H27.0918V4.08008H28.0098V12.8301H27.0918V8.10352H25.5098Z" fill="#2156F2"/>
</g>
<defs>
<clipPath id="clip0_446_7540">
<rect width="42" height="17" fill="white"/>
</clipPath>
</defs>
</svg>
