<svg width="60" height="60" viewBox="0 0 60 60" fill="none" xmlns="http://www.w3.org/2000/svg">
<g clip-path="url(#clip0_438_7630)">
<path d="M22.1434 39.2863H37.8577C38.2366 39.2863 38.5999 39.1358 38.8679 38.8679C39.1358 38.5999 39.2863 38.2366 39.2863 37.8577V22.1434C39.2863 21.7645 39.1358 21.4012 38.8679 21.1333C38.5999 20.8654 38.2366 20.7148 37.8577 20.7148H22.1434C21.7645 20.7148 21.4012 20.8654 21.1333 21.1333C20.8654 21.4012 20.7148 21.7645 20.7148 22.1434V37.8577C20.7148 38.2366 20.8654 38.5999 21.1333 38.8679C21.4012 39.1358 21.7645 39.2863 22.1434 39.2863Z" stroke="#AFAFAF" stroke-width="1.2" stroke-linecap="round" stroke-linejoin="round"/>
<path d="M22.5 39.287L32.9286 29.4584C33.0569 29.3515 33.2187 29.293 33.3857 29.293C33.5528 29.293 33.7145 29.3515 33.8429 29.4584L39.2857 33.3584" stroke="#AFAFAF" stroke-width="1.2" stroke-linecap="round" stroke-linejoin="round"/>
<path d="M26.428 28.5728C26.9963 28.5728 27.5414 28.3471 27.9432 27.9452C28.3451 27.5433 28.5709 26.9983 28.5709 26.43C28.5709 25.8616 28.3451 25.3166 27.9432 24.9147C27.5414 24.5129 26.9963 24.2871 26.428 24.2871C25.8597 24.2871 25.3146 24.5129 24.9128 24.9147C24.5109 25.3166 24.2852 25.8616 24.2852 26.43C24.2852 26.9983 24.5109 27.5433 24.9128 27.9452C25.3146 28.3471 25.8597 28.5728 26.428 28.5728Z" stroke="#AFAFAF" stroke-width="1.2" stroke-linecap="round" stroke-linejoin="round"/>
</g>
<rect x="0.5" y="0.5" width="59" height="59" rx="7.5" stroke="#AFAFAF" stroke-dasharray="8 8"/>
<defs>
<clipPath id="clip0_438_7630">
<rect width="20" height="20" fill="white" transform="translate(20 20)"/>
</clipPath>
</defs>
</svg>
