<svg width="24" height="24" viewBox="0 0 24 24" fill="none" xmlns="http://www.w3.org/2000/svg">
<g clip-path="url(#clip0_438_7459)">
<path d="M19.4275 13.6852V15.9994C19.4275 16.151 19.3673 16.2963 19.2601 16.4035C19.1529 16.5107 19.0076 16.5709 18.856 16.5709H5.14174C4.99019 16.5709 4.84484 16.5107 4.73768 16.4035C4.63052 16.2963 4.57031 16.151 4.57031 15.9994V6.85658C4.57031 6.70503 4.63052 6.55969 4.73768 6.45252C4.84484 6.34536 4.99019 6.28516 5.14174 6.28516H9.1886" stroke="#101010" stroke-width="1.2" stroke-linecap="round" stroke-linejoin="round"/>
<path d="M10.8577 16.5703L9.71484 19.4275" stroke="#101010" stroke-width="1.2" stroke-linecap="round" stroke-linejoin="round"/>
<path d="M13.1406 16.5703L14.2835 19.4275" stroke="#101010" stroke-width="1.2" stroke-linecap="round" stroke-linejoin="round"/>
<path d="M8.57031 19.4277H15.4275" stroke="#101010" stroke-width="1.2" stroke-linecap="round" stroke-linejoin="round"/>
<path d="M15.7394 4.74547L16.6949 6.66776C16.7163 6.71631 16.7502 6.75829 16.7932 6.78942C16.8362 6.82054 16.8866 6.83969 16.9394 6.8449L19.0617 7.16719C19.1223 7.17522 19.1793 7.20032 19.2262 7.23955C19.2731 7.27878 19.3078 7.33052 19.3264 7.38874C19.3449 7.44696 19.3466 7.50927 19.3311 7.56838C19.3156 7.62749 19.2836 7.68098 19.2389 7.72261L17.6732 9.21176C17.65 9.25623 17.6379 9.30562 17.6379 9.35576C17.6379 9.40589 17.65 9.45528 17.6732 9.49976L17.9726 11.6106C17.9852 11.6716 17.9799 11.7349 17.9574 11.793C17.9348 11.851 17.8959 11.9012 17.8453 11.9376C17.7948 11.974 17.7348 11.995 17.6726 11.998C17.6104 12.001 17.5487 11.9859 17.4949 11.9546L15.6069 10.9558C15.558 10.9337 15.505 10.9222 15.4514 10.9222C15.3978 10.9222 15.3448 10.9337 15.296 10.9558L13.4057 11.9535C13.352 11.9847 13.2904 11.9997 13.2283 11.9967C13.1663 11.9937 13.1064 11.9729 13.0559 11.9366C13.0054 11.9004 12.9665 11.8503 12.9438 11.7925C12.9211 11.7347 12.9156 11.6715 12.928 11.6106L13.2834 9.49861C13.2987 9.4498 13.3017 9.39798 13.2921 9.34774C13.2825 9.2975 13.2607 9.2504 13.2286 9.21061L11.6629 7.71004C11.6215 7.66797 11.5924 7.61533 11.5789 7.55787C11.5654 7.50042 11.5679 7.44035 11.5862 7.38422C11.6044 7.32809 11.6378 7.27806 11.6825 7.23959C11.7273 7.20111 11.7818 7.17567 11.84 7.16604L13.9623 6.85633C14.0151 6.851 14.0655 6.83181 14.1084 6.8007C14.1514 6.76959 14.1854 6.72766 14.2069 6.67919L15.1623 4.7569C15.1879 4.70265 15.2282 4.65664 15.2785 4.62403C15.3289 4.59142 15.3873 4.57352 15.4473 4.57233C15.5073 4.57114 15.5664 4.58672 15.618 4.61731C15.6696 4.6479 15.7117 4.69228 15.7394 4.74547Z" stroke="#101010" stroke-width="1.2" stroke-linecap="round" stroke-linejoin="round"/>
</g>
<defs>
<clipPath id="clip0_438_7459">
<rect width="16" height="16" fill="white" transform="translate(4 4)"/>
</clipPath>
</defs>
</svg>
