<svg width="80" height="56" viewBox="0 0 80 56" fill="none" xmlns="http://www.w3.org/2000/svg">
<g clip-path="url(#clip0_438_7577)">
<path d="M42.5862 28.4915C42.7195 28.4557 42.7987 28.3187 42.763 28.1853L42.1806 26.012C42.1449 25.8786 42.0078 25.7995 41.8744 25.8352C41.7411 25.8709 41.6619 26.008 41.6976 26.1414L42.2153 28.0732L40.2834 28.5909C40.1501 28.6266 40.0709 28.7637 40.1067 28.897C40.1424 29.0304 40.2795 29.1096 40.4128 29.0738L42.5862 28.4915ZM26.375 19.2165L42.3965 28.4665L42.6465 28.0335L26.625 18.7835L26.375 19.2165Z" fill="#2156F2"/>
<path d="M23.7566 23.3948C23.7208 23.2614 23.8 23.1243 23.9334 23.0886L26.1067 22.5063C26.2401 22.4705 26.3771 22.5497 26.4129 22.683C26.4486 22.8164 26.3695 22.9535 26.2361 22.9892L24.3042 23.5069L24.8219 25.4387C24.8576 25.5721 24.7785 25.7092 24.6451 25.7449C24.5117 25.7806 24.3747 25.7015 24.3389 25.5681L23.7566 23.3948ZM39.8945 32.7966L23.8731 23.5466L24.1231 23.1136L40.1445 32.3636L39.8945 32.7966Z" fill="#2156F2"/>
<path d="M12.1515 1C20.6923 1 22.549 6.68153 22.549 9.9122C22.549 12.7715 22.1777 13.997 22.1777 13.997H2.12525C2.12525 13.997 1.75391 12.7715 1.75391 9.9122C1.75391 6.68153 3.61062 1 12.1515 1Z" fill="#FFB300"/>
<path d="M21.5078 12.5107C21.5078 12.5107 21.2107 11.2853 21.0622 8.72304C20.8765 5.93797 17.0145 8.16602 12.15 8.16602C7.28538 8.16602 3.42342 5.93797 3.23775 8.72304C3.08921 11.2853 2.79214 12.5107 2.79214 12.5107C0.378418 12.5107 0.378418 16.4469 2.94068 16.4469C2.94068 20.6802 8.25086 23.2796 12.15 23.2796C16.049 23.2796 21.3592 20.6802 21.3592 16.4469C23.9215 16.4469 23.9215 12.5107 21.5078 12.5107Z" fill="#FFDD67"/>
<path d="M16.7926 15.8528C18.1257 15.8528 19.2063 14.7722 19.2063 13.4391C19.2063 12.1061 18.1257 11.0254 16.7926 11.0254C15.4596 11.0254 14.3789 12.1061 14.3789 13.4391C14.3789 14.7722 15.4596 15.8528 16.7926 15.8528Z" fill="white"/>
<path d="M16.7921 15.1116C17.715 15.1116 18.4632 14.3635 18.4632 13.4406C18.4632 12.5177 17.715 11.7695 16.7921 11.7695C15.8692 11.7695 15.1211 12.5177 15.1211 13.4406C15.1211 14.3635 15.8692 15.1116 16.7921 15.1116Z" fill="#664E27"/>
<path d="M16.7914 13.9968C17.099 13.9968 17.3484 13.7475 17.3484 13.4398C17.3484 13.1322 17.099 12.8828 16.7914 12.8828C16.4838 12.8828 16.2344 13.1322 16.2344 13.4398C16.2344 13.7475 16.4838 13.9968 16.7914 13.9968Z" fill="#231F20"/>
<path d="M7.50747 15.8528C8.84053 15.8528 9.92119 14.7722 9.92119 13.4391C9.92119 12.1061 8.84053 11.0254 7.50747 11.0254C6.17441 11.0254 5.09375 12.1061 5.09375 13.4391C5.09375 14.7722 6.17441 15.8528 7.50747 15.8528Z" fill="white"/>
<path d="M7.50698 15.1116C8.42986 15.1116 9.17801 14.3635 9.17801 13.4406C9.17801 12.5177 8.42986 11.7695 7.50698 11.7695C6.58409 11.7695 5.83594 12.5177 5.83594 13.4406C5.83594 14.3635 6.58409 15.1116 7.50698 15.1116Z" fill="#664E27"/>
<path d="M7.51014 13.9968C7.81777 13.9968 8.06715 13.7475 8.06715 13.4398C8.06715 13.1322 7.81777 12.8828 7.51014 12.8828C7.20251 12.8828 6.95312 13.1322 6.95312 13.4398C6.95312 13.7475 7.20251 13.9968 7.51014 13.9968Z" fill="#231F20"/>
<path d="M15.1578 18.1176C13.2268 19.4544 11.073 19.4544 9.14204 18.1176C8.91924 17.9691 8.69643 18.229 8.84497 18.4889C9.43912 19.4544 10.6274 20.3085 12.1499 20.3085C13.6724 20.3085 14.8607 19.4544 15.4549 18.4889C15.6034 18.229 15.3806 17.9691 15.1578 18.1176Z" fill="#937237"/>
<path d="M53.4072 36.5041C49.8182 31.7431 39.637 35.2955 38.8679 34.9659C38.8679 34.9659 38.758 35.6618 39.1609 36.1012C38.6482 36.4675 38.0256 35.8449 38.0256 35.8449C38.0256 35.8449 37.3664 37.383 38.0622 38.3352C36.9635 39.7635 38.2819 47.198 38.2819 47.198H55.0919C55.0919 47.198 57.1062 41.4116 54.7989 37.4197C54.3228 36.5041 53.8101 37.0534 53.4072 36.5041Z" fill="#DBB471"/>
<path d="M55.2749 44.1221C55.2016 44.5249 55.1284 44.8912 55.0185 45.1109C54.8354 45.4771 54.4325 45.6969 54.4325 45.6969C54.4325 45.6969 54.5424 44.9278 54.5058 43.8291C53.9931 36.4679 51.8323 39.9837 46.8516 39.9837C41.8709 39.9837 39.7101 36.4679 39.234 43.8657C39.1974 44.9278 39.3072 45.7335 39.3072 45.7335C39.3072 45.7335 38.9044 45.5138 38.7213 45.1475C38.6114 44.9278 38.5382 44.5616 38.4649 44.1587C37.8057 43.9756 37 44.1221 37 46.0631C37 47.2717 37.4395 48.2239 38.8678 48.3337C39.4904 53.168 40.5891 53.937 44.2147 55.6583C45.1303 56.0978 45.7529 55.9879 46.8516 55.9879C47.9503 55.9879 48.5729 56.0978 49.5251 55.6583C53.1874 53.937 54.2861 53.168 54.872 48.3337C56.3003 48.2239 56.7398 47.235 56.7398 46.0631C56.7398 44.1221 55.8975 43.9756 55.2749 44.1221Z" fill="#FFDD67"/>
<path d="M50.1468 51.189C50.1468 52.4342 48.4988 53.0568 46.8508 53.0568C45.2027 53.0568 43.5547 52.4342 43.5547 51.189C43.5547 51.189 43.5547 50.8594 43.8843 50.8594H49.8172C50.1468 50.8594 50.1468 51.189 50.1468 51.189Z" fill="#937237"/>
<path d="M42.4581 43.7539C40.627 43.7539 39.8945 44.4131 39.8945 45.0723C39.8945 45.7315 39.8945 46.6837 42.3116 46.6837C44.6555 46.6837 45.0218 46.3908 45.0218 45.4019C45.0218 44.7427 44.2893 43.7539 42.4581 43.7539Z" fill="#F5F5F5"/>
<path d="M42.6402 46.5031C43.5504 46.5031 44.2883 45.7653 44.2883 44.8551C44.2883 43.9449 43.5504 43.207 42.6402 43.207C41.73 43.207 40.9922 43.9449 40.9922 44.8551C40.9922 45.7653 41.73 46.5031 42.6402 46.5031Z" fill="#0A84A5"/>
<path d="M43.1885 44.854C43.1885 45.147 42.9322 45.4034 42.6392 45.4034C42.3462 45.4034 42.0898 45.147 42.0898 44.854C42.0898 44.561 42.3462 44.3047 42.6392 44.3047C42.9322 44.3047 43.1885 44.561 43.1885 44.854Z" fill="#231F20"/>
<path d="M39.8945 45.0374C39.8945 42.4738 45.0218 42.4738 45.0218 45.4037C44.2893 43.2063 40.627 43.2063 39.8945 45.0374Z" fill="#664E27"/>
<path d="M51.2433 43.7539C53.0744 43.7539 53.8069 44.4131 53.8069 45.0723C53.8069 45.7315 53.8069 46.6837 51.3898 46.6837C49.0459 46.6837 48.6797 46.3908 48.6797 45.4019C48.6797 44.7427 49.4121 43.7539 51.2433 43.7539Z" fill="#F5F5F5"/>
<path d="M51.0621 46.5031C51.9723 46.5031 52.7101 45.7653 52.7101 44.8551C52.7101 43.9449 51.9723 43.207 51.0621 43.207C50.1519 43.207 49.4141 43.9449 49.4141 44.8551C49.4141 45.7653 50.1519 46.5031 51.0621 46.5031Z" fill="#0A84A5"/>
<path d="M50.5117 44.854C50.5117 45.147 50.7681 45.4034 51.0611 45.4034C51.354 45.4034 51.6104 45.147 51.6104 44.854C51.6104 44.561 51.354 44.3047 51.0611 44.3047C50.7681 44.3047 50.5117 44.561 50.5117 44.854Z" fill="#231F20"/>
<path d="M53.8069 45.0374C53.8069 42.4738 48.6797 42.4738 48.6797 45.4037C49.4121 43.2063 53.0744 43.2063 53.8069 45.0374Z" fill="#664E27"/>
<path d="M46.8516 49.7608C45.3134 49.7608 44.5444 48.6621 45.3134 48.6621H48.3898C49.1588 48.6621 48.3898 49.7608 46.8516 49.7608Z" fill="#EBA352"/>
<path d="M58.7344 46.4667H77.801C77.801 36.2 76.3344 34 68.2677 34C60.201 34 58.7344 36.2 58.7344 46.4667Z" fill="#FFB300"/>
<path d="M76.9933 44.2297C76.92 44.6331 76.8467 44.9997 76.7367 45.2197C76.5167 45.5864 76.1133 45.8064 76.1133 45.8064C76.1133 45.8064 76.2233 45.0364 76.1867 43.9731C75.7467 37.5931 75.38 39.3531 68.2667 39.3531C61.1533 39.3531 60.7867 37.5931 60.3467 43.9364C60.31 44.9997 60.42 45.8064 60.42 45.8064C60.42 45.8064 60.0167 45.5864 59.7967 45.2197C59.6867 44.9997 59.6133 44.6331 59.54 44.2297C58.88 44.0464 58 44.1931 58 46.0997C58 47.2731 58.44 48.2631 59.9433 48.3731C60.42 52.1131 62.62 54.0197 66.25 55.6697C67.24 56.1097 69.2933 56.1097 70.2833 55.6697C73.95 54.0197 76.1133 52.1131 76.59 48.3731C78.0933 48.2631 78.5333 47.3097 78.5333 46.0997C78.5333 44.1931 77.6533 44.0464 76.9933 44.2297Z" fill="#FFDD67"/>
<path d="M71.5648 51.1972C71.5648 52.4439 69.9148 53.0672 68.2648 53.0672C66.6148 53.0672 64.9648 52.4439 64.9648 51.1972C64.9648 51.1972 64.9648 50.8672 65.2948 50.8672H71.2348C71.5648 50.8672 71.5648 51.1972 71.5648 51.1972Z" fill="#937237"/>
<path d="M63.8635 43.752C62.0302 43.752 61.2969 44.412 61.2969 45.072C61.2969 45.732 61.2969 46.6853 63.7169 46.6853C66.0635 46.6853 66.4302 46.392 66.4302 45.402C66.4302 44.742 65.6969 43.752 63.8635 43.752Z" fill="#F5F5F5"/>
<path d="M64.0484 46.5012C64.9597 46.5012 65.6984 45.7624 65.6984 44.8512C65.6984 43.9399 64.9597 43.2012 64.0484 43.2012C63.1372 43.2012 62.3984 43.9399 62.3984 44.8512C62.3984 45.7624 63.1372 46.5012 64.0484 46.5012Z" fill="#664E27"/>
<path d="M64.6 44.8527C64.6 45.1461 64.3433 45.4027 64.05 45.4027C63.7567 45.4027 63.5 45.1461 63.5 44.8527C63.5 44.5594 63.7567 44.3027 64.05 44.3027C64.3433 44.3027 64.6 44.5594 64.6 44.8527Z" fill="#231F20"/>
<path d="M61.2969 45.0377C61.2969 42.471 66.4302 42.471 66.4302 45.4044C65.6969 43.2044 62.0302 43.2044 61.2969 45.0377Z" fill="#664E27"/>
<path d="M72.6682 43.752C74.5016 43.752 75.2349 44.412 75.2349 45.072C75.2349 45.732 75.2349 46.6853 72.8149 46.6853C70.4682 46.6853 70.1016 46.392 70.1016 45.402C70.1016 44.742 70.8349 43.752 72.6682 43.752Z" fill="#F5F5F5"/>
<path d="M72.482 46.5012C73.3933 46.5012 74.132 45.7624 74.132 44.8512C74.132 43.9399 73.3933 43.2012 72.482 43.2012C71.5708 43.2012 70.832 43.9399 70.832 44.8512C70.832 45.7624 71.5708 46.5012 72.482 46.5012Z" fill="#664E27"/>
<path d="M71.9336 44.8527C71.9336 45.1461 72.1903 45.4027 72.4836 45.4027C72.7769 45.4027 73.0336 45.1461 73.0336 44.8527C73.0336 44.5594 72.7769 44.3027 72.4836 44.3027C72.1903 44.3027 71.9336 44.5594 71.9336 44.8527Z" fill="#231F20"/>
<path d="M75.2349 45.0377C75.2349 42.471 70.1016 42.471 70.1016 45.4044C70.8349 43.2044 74.5016 43.2044 75.2349 45.0377Z" fill="#664E27"/>
<path d="M68.264 49.766C66.724 49.766 65.9539 48.666 66.7239 48.666H69.804C70.574 48.666 69.804 49.766 68.264 49.766Z" fill="#EBA352"/>
<path d="M66.5133 34.1162C66.5133 34.1162 67.6649 32.0359 67.6649 28.9155C67.6649 24.8292 64.6559 20 56.892 20C49.1281 20 46.1191 24.8292 46.1191 28.9155C46.1191 32.0359 47.2707 34.1162 47.2707 34.1162C45.9334 35.6392 45.1161 38.7225 46.2677 40.7285C46.7506 41.5457 51.5056 44.4433 51.9513 39.2797H61.7583C62.2413 44.4061 66.9962 41.5457 67.442 40.7285C68.6307 38.7225 67.8134 35.6392 66.5133 34.1162Z" fill="#FFB300"/>
<path d="M56.891 21.4863C51.2074 21.4863 47.0469 24.4582 47.0469 28.1729C47.0469 28.1729 48.5699 22.6008 56.891 22.6008C65.2122 22.6008 66.3637 28.1729 66.3637 28.1729C66.3637 24.4582 62.5747 21.4863 56.891 21.4863Z" fill="#C28FEF"/>
<path d="M66.2918 34.8592C68.5949 34.8592 68.5949 31.5159 66.2918 31.5159V30.4015C66.2918 30.4015 53.29 30.0672 50.3182 25.5723C51.0612 30.1043 47.4578 31.5159 47.4578 31.5159C45.1547 31.5159 45.1547 34.8592 47.4578 34.8592C47.4578 37.4596 50.1696 41.5458 56.8562 41.5458C63.5428 41.5458 66.2918 37.4596 66.2918 34.8592Z" fill="#FFDD67"/>
<path d="M61.5318 35.2296C62.8653 35.2296 63.9464 34.1485 63.9464 32.815C63.9464 31.4814 62.8653 30.4004 61.5318 30.4004C60.1982 30.4004 59.1172 31.4814 59.1172 32.815C59.1172 34.1485 60.1982 35.2296 61.5318 35.2296Z" fill="white"/>
<path d="M52.2466 35.2296C53.5802 35.2296 54.6612 34.1485 54.6612 32.815C54.6612 31.4814 53.5802 30.4004 52.2466 30.4004C50.9131 30.4004 49.832 31.4814 49.832 32.815C49.832 34.1485 50.9131 35.2296 52.2466 35.2296Z" fill="white"/>
<path d="M61.5349 34.4878C62.4582 34.4878 63.2066 33.7394 63.2066 32.8162C63.2066 31.893 62.4582 31.1445 61.5349 31.1445C60.6117 31.1445 59.8633 31.893 59.8633 32.8162C59.8633 33.7394 60.6117 34.4878 61.5349 34.4878Z" fill="#664E27"/>
<path d="M61.5338 33.3722C61.8415 33.3722 62.091 33.1228 62.091 32.815C62.091 32.5073 61.8415 32.2578 61.5338 32.2578C61.226 32.2578 60.9766 32.5073 60.9766 32.815C60.9766 33.1228 61.226 33.3722 61.5338 33.3722Z" fill="#231F20"/>
<path d="M52.2498 34.4878C53.173 34.4878 53.9214 33.7394 53.9214 32.8162C53.9214 31.893 53.173 31.1445 52.2498 31.1445C51.3265 31.1445 50.5781 31.893 50.5781 32.8162C50.5781 33.7394 51.3265 34.4878 52.2498 34.4878Z" fill="#664E27"/>
<path d="M52.2486 33.3722C52.5564 33.3722 52.8058 33.1228 52.8058 32.815C52.8058 32.5073 52.5564 32.2578 52.2486 32.2578C51.9409 32.2578 51.6914 32.5073 51.6914 32.815C51.6914 33.1228 51.9409 33.3722 52.2486 33.3722Z" fill="#231F20"/>
<path d="M59.9023 37.1254C57.9706 38.4627 55.816 38.4627 53.8844 37.1254C53.6615 36.9768 53.4386 37.2369 53.5872 37.4969C54.1815 38.4627 55.3703 39.3171 56.8933 39.3171C58.4164 39.3171 59.6051 38.4627 60.1995 37.4969C60.3481 37.2369 60.1252 36.9768 59.9023 37.1254Z" fill="#937237"/>
</g>
<defs>
<clipPath id="clip0_438_7577">
<rect width="80" height="56" fill="white"/>
</clipPath>
</defs>
</svg>
