<svg width="80" height="56" viewBox="0 0 80 56" fill="none" xmlns="http://www.w3.org/2000/svg">
<path d="M47.5862 33.4915C47.7195 33.4557 47.7987 33.3187 47.763 33.1853L47.1806 31.012C47.1449 30.8786 47.0078 30.7995 46.8744 30.8352C46.7411 30.8709 46.6619 31.008 46.6976 31.1414L47.2153 33.0732L45.2834 33.5909C45.1501 33.6266 45.0709 33.7637 45.1067 33.897C45.1424 34.0304 45.2795 34.1096 45.4128 34.0738L47.5862 33.4915ZM31.375 24.2165L47.3965 33.4665L47.6465 33.0335L31.625 23.7835L31.375 24.2165Z" fill="#2156F2"/>
<path d="M28.7566 28.3948C28.7208 28.2614 28.8 28.1243 28.9334 28.0886L31.1067 27.5063C31.2401 27.4705 31.3771 27.5497 31.4129 27.683C31.4486 27.8164 31.3695 27.9535 31.2361 27.9892L29.3042 28.5069L29.8219 30.4387C29.8576 30.5721 29.7785 30.7092 29.6451 30.7449C29.5117 30.7806 29.3747 30.7015 29.3389 30.5681L28.7566 28.3948ZM44.8945 37.7966L28.8731 28.5466L29.1231 28.1136L45.1445 37.3636L44.8945 37.7966Z" fill="#2156F2"/>
<path d="M17.1515 6C25.6923 6 27.549 11.6815 27.549 14.9122C27.549 17.7715 27.1777 18.997 27.1777 18.997H7.12525C7.12525 18.997 6.75391 17.7715 6.75391 14.9122C6.75391 11.6815 8.61062 6 17.1515 6Z" fill="#FFB300"/>
<path d="M26.5078 17.5107C26.5078 17.5107 26.2107 16.2853 26.0622 13.723C25.8765 10.938 22.0145 13.166 17.15 13.166C12.2854 13.166 8.42342 10.938 8.23775 13.723C8.08921 16.2853 7.79214 17.5107 7.79214 17.5107C5.37842 17.5107 5.37842 21.4469 7.94068 21.4469C7.94068 25.6802 13.2509 28.2796 17.15 28.2796C21.049 28.2796 26.3592 25.6802 26.3592 21.4469C28.9215 21.4469 28.9215 17.5107 26.5078 17.5107Z" fill="#FFDD67"/>
<path d="M21.7926 20.8528C23.1257 20.8528 24.2063 19.7722 24.2063 18.4391C24.2063 17.1061 23.1257 16.0254 21.7926 16.0254C20.4596 16.0254 19.3789 17.1061 19.3789 18.4391C19.3789 19.7722 20.4596 20.8528 21.7926 20.8528Z" fill="white"/>
<path d="M21.7921 20.1116C22.715 20.1116 23.4632 19.3635 23.4632 18.4406C23.4632 17.5177 22.715 16.7695 21.7921 16.7695C20.8692 16.7695 20.1211 17.5177 20.1211 18.4406C20.1211 19.3635 20.8692 20.1116 21.7921 20.1116Z" fill="#664E27"/>
<path d="M21.7914 18.9968C22.099 18.9968 22.3484 18.7475 22.3484 18.4398C22.3484 18.1322 22.099 17.8828 21.7914 17.8828C21.4838 17.8828 21.2344 18.1322 21.2344 18.4398C21.2344 18.7475 21.4838 18.9968 21.7914 18.9968Z" fill="#231F20"/>
<path d="M12.5075 20.8528C13.8405 20.8528 14.9212 19.7722 14.9212 18.4391C14.9212 17.1061 13.8405 16.0254 12.5075 16.0254C11.1744 16.0254 10.0938 17.1061 10.0938 18.4391C10.0938 19.7722 11.1744 20.8528 12.5075 20.8528Z" fill="white"/>
<path d="M12.507 20.1116C13.4299 20.1116 14.178 19.3635 14.178 18.4406C14.178 17.5177 13.4299 16.7695 12.507 16.7695C11.5841 16.7695 10.8359 17.5177 10.8359 18.4406C10.8359 19.3635 11.5841 20.1116 12.507 20.1116Z" fill="#664E27"/>
<path d="M12.5101 18.9968C12.8178 18.9968 13.0672 18.7475 13.0672 18.4398C13.0672 18.1322 12.8178 17.8828 12.5101 17.8828C12.2025 17.8828 11.9531 18.1322 11.9531 18.4398C11.9531 18.7475 12.2025 18.9968 12.5101 18.9968Z" fill="#231F20"/>
<path d="M20.1578 23.1176C18.2268 24.4544 16.073 24.4544 14.142 23.1176C13.9192 22.9691 13.6964 23.229 13.845 23.4889C14.4391 24.4544 15.6274 25.3085 17.1499 25.3085C18.6724 25.3085 19.8607 24.4544 20.4549 23.4889C20.6034 23.229 20.3806 22.9691 20.1578 23.1176Z" fill="#937237"/>
<path d="M71.7945 41.1162C71.7945 41.1162 72.9461 39.0359 72.9461 35.9155C72.9461 31.8292 69.9371 27 62.1732 27C54.4093 27 51.4004 31.8292 51.4004 35.9155C51.4004 39.0359 52.552 41.1162 52.552 41.1162C51.2146 42.6392 50.3974 45.7225 51.549 47.7285C52.0319 48.5457 56.7868 51.4433 57.2326 46.2797H67.0396C67.5225 51.4061 72.2774 48.5457 72.7232 47.7285C73.9119 45.7225 73.0947 42.6392 71.7945 41.1162Z" fill="#FFB300"/>
<path d="M62.1723 28.4863C56.4887 28.4863 52.3281 31.4582 52.3281 35.1729C52.3281 35.1729 53.8512 29.6008 62.1723 29.6008C70.4934 29.6008 71.645 35.1729 71.645 35.1729C71.645 31.4582 67.8559 28.4863 62.1723 28.4863Z" fill="#C28FEF"/>
<path d="M71.573 41.8592C73.8762 41.8592 73.8762 38.5159 71.573 38.5159V37.4015C71.573 37.4015 58.5713 37.0672 55.5995 32.5723C56.3424 37.1043 52.7391 38.5159 52.7391 38.5159C50.4359 38.5159 50.4359 41.8592 52.7391 41.8592C52.7391 44.4596 55.4509 48.5458 62.1375 48.5458C68.8241 48.5458 71.573 44.4596 71.573 41.8592Z" fill="#FFDD67"/>
<path d="M66.813 42.2296C68.1466 42.2296 69.2277 41.1485 69.2277 39.815C69.2277 38.4814 68.1466 37.4004 66.813 37.4004C65.4795 37.4004 64.3984 38.4814 64.3984 39.815C64.3984 41.1485 65.4795 42.2296 66.813 42.2296Z" fill="white"/>
<path d="M57.5279 42.2296C58.8614 42.2296 59.9425 41.1485 59.9425 39.815C59.9425 38.4814 58.8614 37.4004 57.5279 37.4004C56.1943 37.4004 55.1133 38.4814 55.1133 39.815C55.1133 41.1485 56.1943 42.2296 57.5279 42.2296Z" fill="white"/>
<path d="M66.8162 41.4878C67.7394 41.4878 68.4878 40.7394 68.4878 39.8162C68.4878 38.893 67.7394 38.1445 66.8162 38.1445C65.893 38.1445 65.1445 38.893 65.1445 39.8162C65.1445 40.7394 65.893 41.4878 66.8162 41.4878Z" fill="#664E27"/>
<path d="M66.815 40.3722C67.1228 40.3722 67.3722 40.1228 67.3722 39.815C67.3722 39.5073 67.1228 39.2578 66.815 39.2578C66.5073 39.2578 66.2578 39.5073 66.2578 39.815C66.2578 40.1228 66.5073 40.3722 66.815 40.3722Z" fill="#231F20"/>
<path d="M57.531 41.4878C58.4543 41.4878 59.2027 40.7394 59.2027 39.8162C59.2027 38.893 58.4543 38.1445 57.531 38.1445C56.6078 38.1445 55.8594 38.893 55.8594 39.8162C55.8594 40.7394 56.6078 41.4878 57.531 41.4878Z" fill="#664E27"/>
<path d="M57.5299 40.3722C57.8376 40.3722 58.0871 40.1228 58.0871 39.815C58.0871 39.5073 57.8376 39.2578 57.5299 39.2578C57.2221 39.2578 56.9727 39.5073 56.9727 39.815C56.9727 40.1228 57.2221 40.3722 57.5299 40.3722Z" fill="#231F20"/>
<path d="M65.1836 44.1254C63.2519 45.4627 61.0973 45.4627 59.1656 44.1254C58.9427 43.9768 58.7198 44.2369 58.8684 44.4969C59.4628 45.4627 60.6515 46.3171 62.1746 46.3171C63.6976 46.3171 64.8864 45.4627 65.4807 44.4969C65.6293 44.2369 65.4064 43.9768 65.1836 44.1254Z" fill="#937237"/>
</svg>
