<svg width="120" height="120" viewBox="0 0 120 120" fill="none" xmlns="http://www.w3.org/2000/svg">
<path d="M59.9994 115.714C74.7758 115.714 88.9469 109.844 99.3954 99.3954C109.844 88.9469 115.714 74.7758 115.714 59.9994C115.714 45.2231 109.844 31.0519 99.3954 20.6035C88.9469 10.155 74.7758 4.28516 59.9994 4.28516C45.2231 4.28516 31.0519 10.155 20.6035 20.6035C10.155 31.0519 4.28516 45.2231 4.28516 59.9994C4.28516 74.7758 10.155 88.9469 20.6035 99.3954C31.0519 109.844 45.2231 115.714 59.9994 115.714Z" fill="#E5E7EB"/>
<path d="M59.9989 68.57C65.6821 68.57 71.1325 66.3124 75.1512 62.2937C79.1698 58.2751 81.4275 52.8247 81.4275 47.1415C81.4275 41.4583 79.1698 36.0078 75.1512 31.9892C71.1325 27.9705 65.6821 25.7129 59.9989 25.7129C54.3157 25.7129 48.8652 27.9705 44.8466 31.9892C40.828 36.0078 38.5703 41.4583 38.5703 47.1415C38.5703 52.8247 40.828 58.2751 44.8466 62.2937C48.8652 66.3124 54.3157 68.57 59.9989 68.57Z" fill="#FDFDFD"/>
<mask id="mask0_445_6438" style="mask-type:alpha" maskUnits="userSpaceOnUse" x="4" y="4" width="112" height="112">
<path d="M59.9994 115.714C74.7758 115.714 88.9469 109.844 99.3954 99.3954C109.844 88.9469 115.714 74.7758 115.714 59.9994C115.714 45.2231 109.844 31.0519 99.3954 20.6035C88.9469 10.155 74.7758 4.28516 59.9994 4.28516C45.2231 4.28516 31.0519 10.155 20.6035 20.6035C10.155 31.0519 4.28516 45.2231 4.28516 59.9994C4.28516 74.7758 10.155 88.9469 20.6035 99.3954C31.0519 109.844 45.2231 115.714 59.9994 115.714Z" fill="#E5E7EB"/>
</mask>
<g mask="url(#mask0_445_6438)">
<path d="M23.3984 101.999C27.2234 95.7208 32.5991 90.5318 39.0088 86.9313C45.4185 83.3307 52.6467 81.4395 59.9984 81.4395C67.3502 81.4395 74.5784 83.3307 80.9881 86.9313C87.3978 90.5318 92.7735 95.7208 96.5984 101.999" fill="#FDFDFD"/>
<path d="M23.3984 101.999C27.2234 95.7208 32.5991 90.5318 39.0088 86.9313C45.4185 83.3307 52.6467 81.4395 59.9984 81.4395C67.3502 81.4395 74.5784 83.3307 80.9881 86.9313C87.3978 90.5318 92.7735 95.7208 96.5984 101.999C96.998 108.5 76.7902 120.5 59.9984 120.5C43.2067 120.5 23.3984 107 23.3984 101.999Z" fill="#FDFDFD"/>
</g>
<rect x="86" y="87" width="24" height="24" rx="12" fill="#AFAFAF"/>
<g clip-path="url(#clip0_445_6438)">
<path d="M103.573 97.2863C103.573 97.0589 103.482 96.8409 103.321 96.6802C103.161 96.5194 102.943 96.4291 102.715 96.4291H101.001L99.7154 94.7148H96.2868L95.0011 96.4291H93.2868C93.0595 96.4291 92.8415 96.5194 92.6807 96.6802C92.52 96.8409 92.4297 97.0589 92.4297 97.2863V102.429C92.4297 102.656 92.52 102.874 92.6807 103.035C92.8415 103.196 93.0595 103.286 93.2868 103.286H102.715C102.943 103.286 103.161 103.196 103.321 103.035C103.482 102.874 103.573 102.656 103.573 102.429V97.2863Z" fill="#FDFDFD" stroke="#FDFDFD" stroke-linecap="round" stroke-linejoin="round"/>
<path d="M98.0028 101.357C98.5143 101.357 99.0048 101.154 99.3665 100.792C99.7282 100.431 99.9314 99.9401 99.9314 99.4286C99.9314 98.9171 99.7282 98.4265 99.3665 98.0649C99.0048 97.7032 98.5143 97.5 98.0028 97.5C97.4913 97.5 97.0008 97.7032 96.6391 98.0649C96.2774 98.4265 96.0742 98.9171 96.0742 99.4286C96.0742 99.9401 96.2774 100.431 96.6391 100.792C97.0008 101.154 97.4913 101.357 98.0028 101.357Z" fill="#FDFDFD" stroke="#AFAFAF" stroke-linecap="round" stroke-linejoin="round"/>
</g>
<defs>
<clipPath id="clip0_445_6438">
<rect width="12" height="12" fill="white" transform="translate(92 93)"/>
</clipPath>
</defs>
</svg>
