<svg width="48" height="48" viewBox="0 0 48 48" fill="none" xmlns="http://www.w3.org/2000/svg">
<g id="&#240;&#159;&#166;&#134; emoji &#34;Pencil lower left&#34;">
<g id="Group 14130">
<path id="Vector" d="M5.94922 30.8435L29.8702 6.93359L41.0589 18.1229L17.1372 42.0328L5.94922 30.8435Z" fill="#FFCE31"/>
<path id="Vector_2" d="M45.9749 3.44933L44.5499 2.02461C41.8498 -0.67487 37.4997 -0.67487 34.7247 2.02461L29.8496 6.89867L41.0998 18.1465L45.9749 13.2724C48.675 10.573 48.675 6.14881 45.9749 3.44933Z" fill="#ED4C5C"/>
<path id="Vector_3" d="M26.8359 9.9802L29.911 6.9043L41.1012 18.0921L38.0261 21.1673L26.8359 9.9802Z" fill="#93A2AA"/>
<path id="Vector_4" d="M28.002 11.1455L31.077 8.07031L39.8814 16.8721L36.8049 19.9465L28.002 11.1455Z" fill="#C7D3D8"/>
<path id="Vector_5" d="M5.92392 30.8184L1.04883 43.5659L4.42389 46.9403L17.1741 42.0662L5.92392 30.8184Z" fill="#FED0AC"/>
<path id="Vector_6" d="M0.224115 45.8168C-0.450898 47.6164 0.449119 48.4413 2.24915 47.7664L8.39926 45.4419L2.62416 39.668L0.224115 45.8168Z" fill="#333333"/>
<path id="Vector_7" d="M5.91797 30.8753L26.8134 9.98438L30.5259 13.6962L9.63054 34.5871L5.91797 30.8753Z" fill="#FFDF85"/>
<path id="Vector_8" d="M13.4258 38.348L34.3212 17.457L38.0337 21.1688L17.1383 42.0598L13.4258 38.348Z" fill="#FF8736"/>
</g>
</g>
</svg>
