<svg width="16" height="16" viewBox="0 0 16 16" fill="none" xmlns="http://www.w3.org/2000/svg">
<g id="Link Chain" clip-path="url(#clip0_194_8036)">
<g id="link-chain--create-hyperlink-link-make-unlink-connection-chain">
<path id="Vector 2513" d="M6.85718 3.42794L8.53032 1.75479C9.29222 1.01724 10.3135 0.608712 11.3739 0.617321C12.4343 0.62593 13.4488 1.05099 14.1986 1.80081C14.9484 2.55064 15.3735 3.56514 15.3821 4.62552C15.3907 5.6859 14.9822 6.70718 14.2446 7.46908L12.5715 9.14222" stroke="#2156F2" stroke-width="1.14286" stroke-linecap="round" stroke-linejoin="round"/>
<path id="Vector 2514" d="M9.14283 12.5717L7.46969 14.2449C6.70779 14.9824 5.68651 15.3909 4.62613 15.3823C3.56575 15.3737 2.55125 14.9487 1.80142 14.1988C1.0516 13.449 0.62654 12.4345 0.617931 11.3741C0.609322 10.3137 1.01785 9.29247 1.7554 8.53057L3.42855 6.85742" stroke="#2156F2" stroke-width="1.14286" stroke-linecap="round" stroke-linejoin="round"/>
<path id="Vector 2515" d="M10.2857 5.71289L5.71423 10.2843" stroke="#2156F2" stroke-width="1.14286" stroke-linecap="round" stroke-linejoin="round"/>
</g>
</g>
<defs>
<clipPath id="clip0_194_8036">
<rect width="16" height="16" fill="white"/>
</clipPath>
</defs>
</svg>
