<svg width="36" height="36" viewBox="0 0 36 36" fill="none" xmlns="http://www.w3.org/2000/svg">
<rect x="0.5" y="0.5" width="35" height="35" rx="17.5" fill="#FDFDFD"/>
<g clip-path="url(#clip0_317_7562)">
<path d="M16.8574 13.4289L18.5306 11.7558C19.2925 11.0182 20.3137 10.6097 21.3741 10.6183C22.4345 10.6269 23.449 11.052 24.1988 11.8018C24.9487 12.5516 25.3737 13.5661 25.3823 14.6265C25.3909 15.6869 24.9824 16.7082 24.2449 17.4701L22.5717 19.1432" stroke="#2156F2" stroke-width="1.14286" stroke-linecap="round" stroke-linejoin="round"/>
<path d="M19.1422 22.5717L17.4691 24.2449C16.7072 24.9824 15.6859 25.3909 14.6255 25.3823C13.5651 25.3737 12.5506 24.9487 11.8008 24.1988C11.051 23.449 10.6259 22.4345 10.6173 21.3741C10.6087 20.3137 11.0172 19.2925 11.7548 18.5306L13.4279 16.8574" stroke="#2156F2" stroke-width="1.14286" stroke-linecap="round" stroke-linejoin="round"/>
<path d="M20.2843 15.7148L15.7129 20.2863" stroke="#2156F2" stroke-width="1.14286" stroke-linecap="round" stroke-linejoin="round"/>
</g>
<rect x="0.5" y="0.5" width="35" height="35" rx="17.5" stroke="#2156F2"/>
<defs>
<clipPath id="clip0_317_7562">
<rect width="16" height="16" fill="white" transform="translate(10 10)"/>
</clipPath>
</defs>
</svg>
