<svg width="16" height="16" viewBox="0 0 16 16" fill="none" xmlns="http://www.w3.org/2000/svg">
<g id="Pencil" clip-path="url(#clip0_194_7553)">
<g id="pencil--change-edit-modify-pencil-write-writing">
<path id="Vector" d="M5.71439 13.9885L0.571533 15.4285L2.01153 10.2856L11.4287 0.91417C11.5351 0.805318 11.6622 0.718828 11.8025 0.659779C11.9429 0.60073 12.0936 0.570312 12.2458 0.570312C12.3981 0.570312 12.5488 0.60073 12.6891 0.659779C12.8294 0.718828 12.9565 0.805318 13.063 0.91417L15.0858 2.94846C15.1928 3.05478 15.2777 3.1812 15.3356 3.32046C15.3936 3.45972 15.4234 3.60906 15.4234 3.75988C15.4234 3.91071 15.3936 4.06005 15.3356 4.19931C15.2777 4.33857 15.1928 4.46499 15.0858 4.57131L5.71439 13.9885Z" stroke="#2156F2" stroke-width="1.2" stroke-linecap="round" stroke-linejoin="round"/>
</g>
</g>
<defs>
<clipPath id="clip0_194_7553">
<rect width="16" height="16" fill="white"/>
</clipPath>
</defs>
</svg>
