<svg width="12" height="12" viewBox="0 0 12 12" fill="none" xmlns="http://www.w3.org/2000/svg">
<g id="Camera 1" clip-path="url(#clip0_210_6227)">
<g id="camera-1--photos-picture-camera-photography-photo-pictures">
<path id="Vector" d="M11.5706 4.28627C11.5706 4.05894 11.4803 3.84093 11.3195 3.68018C11.1588 3.51944 10.9408 3.42913 10.7134 3.42913H8.99916L7.71345 1.71484H4.28488L2.99916 3.42913H1.28488C1.05755 3.42913 0.839531 3.51944 0.678786 3.68018C0.51804 3.84093 0.427734 4.05894 0.427734 4.28627V9.42913C0.427734 9.65646 0.51804 9.87447 0.678786 10.0352C0.839531 10.196 1.05755 10.2863 1.28488 10.2863H10.7134C10.9408 10.2863 11.1588 10.196 11.3195 10.0352C11.4803 9.87447 11.5706 9.65646 11.5706 9.42913V4.28627Z" fill="#FDFDFD" stroke="#FDFDFD" stroke-linecap="round" stroke-linejoin="round"/>
<path id="Vector_2" d="M5.99888 8.35714C6.51037 8.35714 7.00091 8.15395 7.36259 7.79228C7.72427 7.4306 7.92746 6.94006 7.92746 6.42857C7.92746 5.91708 7.72427 5.42654 7.36259 5.06487C7.00091 4.70319 6.51037 4.5 5.99888 4.5C5.4874 4.5 4.99686 4.70319 4.63518 5.06487C4.2735 5.42654 4.07031 5.91708 4.07031 6.42857C4.07031 6.94006 4.2735 7.4306 4.63518 7.79228C4.99686 8.15395 5.4874 8.35714 5.99888 8.35714Z" fill="#FDFDFD" stroke="#AFAFAF" stroke-linecap="round" stroke-linejoin="round"/>
</g>
</g>
<defs>
<clipPath id="clip0_210_6227">
<rect width="12" height="12" fill="white"/>
</clipPath>
</defs>
</svg>
