<svg width="40" height="40" viewBox="0 0 40 40" fill="none" xmlns="http://www.w3.org/2000/svg">
<g id="Group 14055">
<circle id="Ellipse 1201" cx="20" cy="20" r="20" fill="#FDFDFD"/>
<g id="location-target-1--navigation-location-map-services-maps-gps-target">
<path id="Vector" d="M20 29C21.1819 29 22.3522 28.7672 23.4442 28.3149C24.5361 27.8626 25.5282 27.1997 26.364 26.364C27.1997 25.5282 27.8626 24.5361 28.3149 23.4442C28.7672 22.3522 29 21.1819 29 20C29 18.8181 28.7672 17.6478 28.3149 16.5558C27.8626 15.4639 27.1997 14.4718 26.364 13.636C25.5282 12.8003 24.5361 12.1374 23.4442 11.6851C22.3522 11.2328 21.1819 11 20 11C17.6131 11 15.3239 11.9482 13.636 13.636C11.9482 15.3239 11 17.6131 11 20C11 22.3869 11.9482 24.6761 13.636 26.364C15.3239 28.0518 17.6131 29 20 29Z" stroke="#2156F2" stroke-width="1.5" stroke-linecap="round" stroke-linejoin="round"/>
<path id="Vector_3" d="M20 15.667V11.667" stroke="#2156F2" stroke-width="1.5" stroke-linecap="round" stroke-linejoin="round"/>
<path id="Vector_4" d="M20 28.1123V24.1123" stroke="#2156F2" stroke-width="1.5" stroke-linecap="round" stroke-linejoin="round"/>
<path id="Vector_5" d="M24.1122 20H28.1122" stroke="#2156F2" stroke-width="1.5" stroke-linecap="round" stroke-linejoin="round"/>
<path id="Vector_6" d="M11.6669 20H15.6669" stroke="#2156F2" stroke-width="1.5" stroke-linecap="round" stroke-linejoin="round"/>
</g>
</g>
</svg>
