<svg width="160" height="160" viewBox="0 0 160 160" fill="none" xmlns="http://www.w3.org/2000/svg">
<rect width="160" height="160" fill="#EBF0FC"/>
<path d="M125.434 84.9025C125.434 110.806 104.402 131.805 78.4574 131.805C52.5125 131.805 36.082 111.231 32.289 93.6091C31.4063 89.5035 31.4311 86.3147 31.4807 84.9025C32.1543 65.847 48.9109 38 78.4574 38C104.402 38 125.434 58.9985 125.434 84.9025Z" fill="white"/>
<path d="M65.2937 133.347C61.0434 133.163 56.8286 134.476 53.2412 138.656C51.1142 141.133 50.0508 144.672 50.7598 147.15C52.2521 152.367 59.466 153.967 67.7752 152.459C75.5739 151.043 79.8277 147.504 79.1187 142.903C78.073 136.111 73.447 133.701 65.2937 133.347Z" fill="black"/>
<path d="M99.1827 133.347C103.433 133.163 107.648 134.476 111.235 138.656C113.362 141.133 114.426 144.672 113.717 147.15C112.224 152.367 105.011 153.967 96.7013 152.459C88.9026 151.043 84.6488 147.504 85.3577 142.903C86.4035 136.111 91.0295 133.701 99.1827 133.347Z" fill="black"/>
<path fill-rule="evenodd" clip-rule="evenodd" d="M157 86.3011C155.203 74.8622 119.694 70.9194 77.6905 77.4954C65.7523 79.3644 54.5741 81.8822 44.7295 84.7916V72.6825C54.1238 69.9966 64.6629 67.6698 75.872 65.9149C117.875 59.3389 153.384 63.2817 155.181 74.7206L157 86.3011ZM16.9102 83.4085C7.53683 88.4614 2.32256 93.7735 3.07089 98.5364L4.88926 110.116C4.1916 105.671 8.68725 100.747 16.9102 96.0027V83.4085Z" fill="#2156F2"/>
<path fill-rule="evenodd" clip-rule="evenodd" d="M157 86.3011C155.203 74.8622 119.694 70.9194 77.6905 77.4954C65.7523 79.3644 54.5741 81.8822 44.7295 84.7916V72.6825C54.1238 69.9966 64.6629 67.6698 75.872 65.9149C117.875 59.3389 153.384 63.2817 155.181 74.7206L157 86.3011ZM16.9102 83.4085C7.53683 88.4614 2.32256 93.7735 3.07089 98.5364L4.88926 110.116C4.1916 105.671 8.68725 100.747 16.9102 96.0027V83.4085Z" fill="black" fill-opacity="0.3"/>
<path d="M125.434 84.9025C125.434 110.806 104.402 131.805 78.4574 131.805C52.5125 131.805 36.082 111.231 32.289 93.6091C31.4063 89.5035 31.4311 86.3147 31.4807 84.9025C32.1543 65.847 48.9109 38 78.4574 38C104.402 38 125.434 58.9985 125.434 84.9025Z" fill="white"/>
<path d="M63.0931 64.3089C65.5834 64.3089 67.6021 61.8131 67.6021 58.7345C67.6021 55.6559 65.5834 53.1602 63.0931 53.1602C60.6028 53.1602 58.584 55.6559 58.584 58.7345C58.584 61.8131 60.6028 64.3089 63.0931 64.3089Z" fill="black"/>
<path d="M61.9743 57.2947C62.6106 57.2947 63.1264 56.7797 63.1264 56.1444C63.1264 55.5091 62.6106 54.9941 61.9743 54.9941C61.3381 54.9941 60.8223 55.5091 60.8223 56.1444C60.8223 56.7797 61.3381 57.2947 61.9743 57.2947Z" fill="white"/>
<path d="M75.513 64.3089C78.0033 64.3089 80.0221 61.8131 80.0221 58.7345C80.0221 55.6559 78.0033 53.1602 75.513 53.1602C73.0227 53.1602 71.0039 55.6559 71.0039 58.7345C71.0039 61.8131 73.0227 64.3089 75.513 64.3089Z" fill="black"/>
<path d="M74.3923 57.2947C75.0286 57.2947 75.5444 56.7797 75.5444 56.1444C75.5444 55.5091 75.0286 54.9941 74.3923 54.9941C73.756 54.9941 73.2402 55.5091 73.2402 56.1444C73.2402 56.7797 73.756 57.2947 74.3923 57.2947Z" fill="white"/>
<path fill-rule="evenodd" clip-rule="evenodd" d="M3 97.7461C4.79725 109.185 40.3063 113.128 82.3095 106.552C90.7649 105.227 98.839 103.578 106.328 101.694V113.726C99.3561 115.423 91.9033 116.915 84.128 118.132C42.1248 124.708 6.61577 120.766 4.81852 109.327L3 97.7461ZM132.16 105.67C148.229 99.26 157.932 91.8912 156.929 85.5073L155.111 73.9277C156.074 80.065 147.138 87.1139 132.16 93.3457V105.67Z" fill="#2156F2"/>
<path d="M118.252 103.687L132.18 89.5916L135.595 108.181L118.252 103.687Z" fill="#2156F2"/>
<path d="M30.2791 85.8109L16.3514 99.9065L12.9365 81.3168L30.2791 85.8109Z" fill="#2156F2"/>
<path d="M30.2791 85.8109L16.3514 99.9065L12.9365 81.3168L30.2791 85.8109Z" fill="black" fill-opacity="0.3"/>
<path d="M120.097 26.839C122.976 23.6838 126.891 21.6232 132.396 22.0474C135.658 22.3005 138.92 24.0653 140.176 26.3327C142.82 31.11 138.845 37.3811 131.895 42.2155C125.372 46.7539 119.849 47.2566 117.087 43.4775C113.013 37.8945 114.578 32.889 120.101 26.839H120.097Z" fill="#2156F2"/>
<path d="M29.3618 12.5193C26.0871 9.78148 21.9319 8.26818 16.5335 9.43194C13.3351 10.1232 10.339 12.3124 9.39743 14.7289C7.41653 19.8199 12.1951 25.4973 19.7287 29.3494C26.8007 32.9657 32.3407 32.7181 34.5713 28.6004C37.8618 22.5179 35.6408 17.7692 29.3583 12.5198L29.3618 12.5193Z" fill="#2156F2"/>
</svg>
