<svg width="80" height="80" viewBox="0 0 80 80" fill="none" xmlns="http://www.w3.org/2000/svg">
<rect width="80" height="80" fill="#EBF0FC"/>
<path d="M62.7171 34.9512C62.7171 47.9032 52.2012 58.4025 39.2287 58.4025C26.2562 58.4025 18.041 48.1156 16.1445 39.3046C15.7032 37.2518 15.7156 35.6573 15.7404 34.9512C16.0771 25.4235 24.4554 11.5 39.2287 11.5C52.2012 11.5 62.7171 21.9993 62.7171 34.9512Z" fill="white"/>
<path d="M32.6459 59.1724C30.5207 59.0804 28.4133 59.7369 26.6196 61.8269C25.5561 63.0656 25.0244 64.8352 25.3789 66.074C26.1251 68.6824 29.732 69.4823 33.8866 68.7284C37.786 68.0206 39.9129 66.2509 39.5584 63.9504C39.0355 60.5545 36.7225 59.3494 32.6459 59.1724Z" fill="black"/>
<path d="M49.5914 59.1724C51.7165 59.0804 53.824 59.7369 55.6177 61.8269C56.6811 63.0656 57.2129 64.8352 56.8584 66.074C56.1122 68.6824 52.5053 69.4823 48.3507 68.7284C44.4513 68.0206 42.3244 66.2509 42.6789 63.9504C43.2017 60.5545 45.5148 59.3494 49.5914 59.1724Z" fill="black"/>
<path fill-rule="evenodd" clip-rule="evenodd" d="M78.5 35.6496C77.6014 29.9301 59.8469 27.9587 38.8453 31.2467C32.8761 32.1812 27.287 33.4401 22.3648 34.8948V28.8402C27.0619 27.4973 32.3314 26.3339 37.936 25.4565C58.9376 22.1685 76.6921 24.1399 77.5907 29.8593L78.5 35.6496ZM8.45508 34.2033C3.76841 36.7297 1.16128 39.3858 1.53545 41.7672L2.44463 47.557C2.0958 45.3344 4.34363 42.8727 8.45508 40.5004V34.2033Z" fill="#2156F2"/>
<path fill-rule="evenodd" clip-rule="evenodd" d="M78.5 35.6496C77.6014 29.9301 59.8469 27.9587 38.8453 31.2467C32.8761 32.1812 27.287 33.4401 22.3648 34.8948V28.8402C27.0619 27.4973 32.3314 26.3339 37.936 25.4565C58.9376 22.1685 76.6921 24.1399 77.5907 29.8593L78.5 35.6496ZM8.45508 34.2033C3.76841 36.7297 1.16128 39.3858 1.53545 41.7672L2.44463 47.557C2.0958 45.3344 4.34363 42.8727 8.45508 40.5004V34.2033Z" fill="black" fill-opacity="0.3"/>
<path d="M62.7171 34.9512C62.7171 47.9032 52.2012 58.4025 39.2287 58.4025C26.2562 58.4025 18.041 48.1156 16.1445 39.3046C15.7032 37.2518 15.7156 35.6573 15.7404 34.9512C16.0771 25.4235 24.4554 11.5 39.2287 11.5C52.2012 11.5 62.7171 21.9993 62.7171 34.9512Z" fill="white"/>
<path d="M31.5436 24.6544C32.7888 24.6544 33.7981 23.4066 33.7981 21.8673C33.7981 20.3279 32.7888 19.0801 31.5436 19.0801C30.2985 19.0801 29.2891 20.3279 29.2891 21.8673C29.2891 23.4066 30.2985 24.6544 31.5436 24.6544Z" fill="black"/>
<path d="M30.9842 21.1464C31.3024 21.1464 31.5603 20.8889 31.5603 20.5712C31.5603 20.2536 31.3024 19.9961 30.9842 19.9961C30.6661 19.9961 30.4082 20.2536 30.4082 20.5712C30.4082 20.8889 30.6661 21.1464 30.9842 21.1464Z" fill="white"/>
<path d="M37.7545 24.6544C38.9997 24.6544 40.0091 23.4066 40.0091 21.8673C40.0091 20.3279 38.9997 19.0801 37.7545 19.0801C36.5094 19.0801 35.5 20.3279 35.5 21.8673C35.5 23.4066 36.5094 24.6544 37.7545 24.6544Z" fill="black"/>
<path d="M37.1932 21.1464C37.5114 21.1464 37.7693 20.8889 37.7693 20.5712C37.7693 20.2536 37.5114 19.9961 37.1932 19.9961C36.8751 19.9961 36.6172 20.2536 36.6172 20.5712C36.6172 20.8889 36.8751 21.1464 37.1932 21.1464Z" fill="white"/>
<path fill-rule="evenodd" clip-rule="evenodd" d="M1.5 41.374C2.39863 47.0935 20.1531 49.0649 41.1547 45.7769C45.3824 45.1147 49.4195 44.2898 53.1641 43.3479V49.364C49.6781 50.2123 45.9516 50.9585 42.064 51.5671C21.0624 54.8551 3.30789 52.8838 2.40926 47.1643L1.5 41.374ZM66.0802 45.3358C74.1147 42.131 78.9659 38.4466 78.4646 35.2546L77.5554 29.4648C78.037 32.5335 73.5689 36.0579 66.0802 39.1738V45.3358Z" fill="#2156F2"/>
<path d="M59.127 44.3445L66.0909 37.2968L67.7984 46.5916L59.127 44.3445Z" fill="#2156F2"/>
<path d="M15.1386 35.4055L8.17472 42.4532L6.46725 33.1584L15.1386 35.4055Z" fill="#2156F2"/>
<path d="M15.1386 35.4055L8.17472 42.4532L6.46725 33.1584L15.1386 35.4055Z" fill="black" fill-opacity="0.3"/>
</svg>
