<svg width="48" height="48" viewBox="0 0 48 48" fill="none" xmlns="http://www.w3.org/2000/svg">
<rect width="48" height="48" rx="24" fill="#EBF0FC"/>
<path d="M32.668 23.3556C32.668 28.2518 28.6989 32.2209 23.8027 32.2209C18.9064 32.2209 15.8057 28.3321 15.0899 25.0012C14.9233 24.2252 14.928 23.6225 14.9373 23.3556C15.0644 19.7538 18.2267 14.4902 23.8027 14.4902C28.6989 14.4902 32.668 18.4593 32.668 23.3556Z" fill="white"/>
<path d="M21.3193 32.5129C20.5171 32.4781 19.7217 32.7263 19.0447 33.5164C18.6433 33.9847 18.4426 34.6537 18.5764 35.1219C18.8581 36.108 20.2195 36.4104 21.7875 36.1254C23.2593 35.8578 24.0621 35.1888 23.9283 34.3192C23.7309 33.0354 22.8579 32.5798 21.3193 32.5129Z" fill="black"/>
<path d="M27.7133 32.5129C28.5154 32.4781 29.3108 32.7263 29.9878 33.5164C30.3892 33.9847 30.5899 34.6537 30.4561 35.1219C30.1745 36.108 28.8131 36.4104 27.245 36.1254C25.7733 35.8578 24.9705 35.1888 25.1043 34.3192C25.3016 33.0354 26.1746 32.5798 27.7133 32.5129Z" fill="black"/>
<path fill-rule="evenodd" clip-rule="evenodd" d="M38.625 23.615C38.2858 21.4529 31.5847 20.7076 23.6579 21.9506C21.4049 22.3039 19.2954 22.7798 17.4375 23.3297V21.0409C19.2104 20.5332 21.1993 20.0934 23.3147 19.7617C31.2415 18.5187 37.9426 19.264 38.2818 21.4261L38.625 23.615ZM12.1875 23.0683C10.4186 24.0234 9.43466 25.0274 9.57588 25.9277L9.91904 28.1164C9.78738 27.2762 10.6358 26.3456 12.1875 25.4488V23.0683Z" fill="#2156F2"/>
<path fill-rule="evenodd" clip-rule="evenodd" d="M38.625 23.6189C38.2858 21.4568 31.5847 20.7115 23.6579 21.9545C21.4049 22.3078 19.2954 22.7837 17.4375 23.3336V21.0448C19.2104 20.5371 21.1993 20.0973 23.3147 19.7656C31.2415 18.5226 37.9426 19.2679 38.2818 21.43L38.625 23.6189ZM12.1875 23.0722C10.4186 24.0273 9.43466 25.0313 9.57588 25.9316L9.91904 28.1203C9.78738 27.2801 10.6358 26.3495 12.1875 25.4527V23.0722Z" fill="black" fill-opacity="0.3"/>
<path d="M32.668 23.3556C32.668 28.2518 28.6989 32.2209 23.8027 32.2209C18.9064 32.2209 15.8057 28.3321 15.0899 25.0012C14.9233 24.2252 14.928 23.6225 14.9373 23.3556C15.0644 19.7538 18.2267 14.4902 23.8027 14.4902C28.6989 14.4902 32.668 18.4593 32.668 23.3556Z" fill="white"/>
<path d="M20.9017 19.4628C21.3717 19.4628 21.7527 18.991 21.7527 18.4091C21.7527 17.8272 21.3717 17.3555 20.9017 17.3555C20.4318 17.3555 20.0508 17.8272 20.0508 18.4091C20.0508 18.991 20.4318 19.4628 20.9017 19.4628Z" fill="black"/>
<path d="M20.6901 18.138C20.8102 18.138 20.9075 18.0406 20.9075 17.9205C20.9075 17.8005 20.8102 17.7031 20.6901 17.7031C20.57 17.7031 20.4727 17.8005 20.4727 17.9205C20.4727 18.0406 20.57 18.138 20.6901 18.138Z" fill="white"/>
<path d="M23.2455 19.4628C23.7154 19.4628 24.0964 18.991 24.0964 18.4091C24.0964 17.8272 23.7154 17.3555 23.2455 17.3555C22.7755 17.3555 22.3945 17.8272 22.3945 18.4091C22.3945 18.991 22.7755 19.4628 23.2455 19.4628Z" fill="black"/>
<path d="M23.0338 18.138C23.1539 18.138 23.2512 18.0406 23.2512 17.9205C23.2512 17.8005 23.1539 17.7031 23.0338 17.7031C22.9137 17.7031 22.8164 17.8005 22.8164 17.9205C22.8164 18.0406 22.9137 18.138 23.0338 18.138Z" fill="white"/>
<path fill-rule="evenodd" clip-rule="evenodd" d="M9.5625 25.7833C9.90167 27.9454 16.6028 28.6907 24.5296 27.4477C26.1253 27.1974 27.6491 26.8855 29.0625 26.5295V28.8037C27.7467 29.1244 26.3402 29.4065 24.8728 29.6366C16.946 30.8796 10.2449 30.1344 9.90569 27.9722L9.5625 25.7833ZM33.9375 27.2809C36.9699 26.0694 38.8008 24.6766 38.6116 23.47L38.2685 21.2812C38.4502 22.4413 36.7639 23.7736 33.9375 24.9515V27.2809Z" fill="#2156F2"/>
<path d="M31.3131 26.906L33.9415 24.2418L34.5859 27.7555L31.3131 26.906Z" fill="#2156F2"/>
<path d="M14.7104 23.5276L12.082 26.1918L11.4375 22.6781L14.7104 23.5276Z" fill="#2156F2"/>
<path d="M14.7104 23.5276L12.082 26.1918L11.4375 22.6781L14.7104 23.5276Z" fill="black" fill-opacity="0.3"/>
</svg>
