<svg width="30" height="30" viewBox="0 0 30 30" fill="none" xmlns="http://www.w3.org/2000/svg">
<rect width="30" height="30" fill="#EBF0FC"/>
<path d="M23.5184 13.1067C23.5184 17.9637 19.575 21.9009 14.7103 21.9009C9.8456 21.9009 6.76489 18.0433 6.0537 14.7392C5.88819 13.9694 5.89285 13.3715 5.90215 13.1067C6.02844 9.53382 9.17031 4.3125 14.7103 4.3125C19.575 4.3125 23.5184 8.24972 23.5184 13.1067Z" fill="white"/>
<path d="M12.2427 22.1906C11.4458 22.1561 10.6555 22.4023 9.98284 23.186C9.58404 23.6506 9.38464 24.3142 9.51758 24.7787C9.7974 25.7569 11.15 26.0568 12.708 25.7741C14.1702 25.5087 14.9678 24.8451 14.8349 23.9824C14.6388 22.7089 13.7714 22.257 12.2427 22.1906Z" fill="black"/>
<path d="M18.5968 22.1906C19.3937 22.1561 20.184 22.4023 20.8566 23.186C21.2554 23.6506 21.4548 24.3142 21.3219 24.7787C21.0421 25.7569 19.6895 26.0568 18.1315 25.7741C16.6692 25.5087 15.8716 24.8451 16.0046 23.9824C16.2007 22.7089 17.068 22.257 18.5968 22.1906Z" fill="black"/>
<path fill-rule="evenodd" clip-rule="evenodd" d="M29.4375 13.3664C29.1005 11.2216 22.4426 10.4823 14.567 11.7153C12.3283 12.0658 10.2321 12.538 8.38605 13.0836V10.8131C10.1477 10.3094 12.124 9.87307 14.226 9.54398C22.1016 8.31098 28.7595 9.05025 29.0965 11.1951L29.4375 13.3664ZM3.16992 12.8244C1.41288 13.7717 0.435499 14.7676 0.575792 15.6605L0.916737 17.8317C0.785946 16.9983 1.62859 16.0754 3.16992 15.1859V12.8244Z" fill="#2156F2"/>
<path fill-rule="evenodd" clip-rule="evenodd" d="M29.4375 13.3684C29.1005 11.2236 22.4426 10.4843 14.567 11.7173C12.3283 12.0678 10.2321 12.5399 8.38605 13.0855V10.8151C10.1477 10.3114 12.124 9.87502 14.226 9.54593C22.1016 8.31294 28.7595 9.0522 29.0965 11.197L29.4375 13.3684ZM3.16992 12.8264C1.41288 13.7737 0.435499 14.7695 0.575792 15.6625L0.916737 17.8336C0.785946 17.0003 1.62859 16.0773 3.16992 15.1878V12.8264Z" fill="black" fill-opacity="0.3"/>
<path d="M23.5184 13.1067C23.5184 17.9637 19.575 21.9009 14.7103 21.9009C9.8456 21.9009 6.76489 18.0433 6.0537 14.7392C5.88819 13.9694 5.89285 13.3715 5.90215 13.1067C6.02844 9.53382 9.17031 4.3125 14.7103 4.3125C19.575 4.3125 23.5184 8.24972 23.5184 13.1067Z" fill="white"/>
<path d="M11.8259 9.25054C12.2929 9.25054 12.6714 8.78259 12.6714 8.20535C12.6714 7.6281 12.2929 7.16016 11.8259 7.16016C11.359 7.16016 10.9805 7.6281 10.9805 8.20535C10.9805 8.78259 11.359 9.25054 11.8259 9.25054Z" fill="black"/>
<path d="M11.6145 7.93526C11.7338 7.93526 11.8305 7.83869 11.8305 7.71958C11.8305 7.60047 11.7338 7.50391 11.6145 7.50391C11.4952 7.50391 11.3984 7.60047 11.3984 7.71958C11.3984 7.83869 11.4952 7.93526 11.6145 7.93526Z" fill="white"/>
<path d="M14.156 9.25054C14.6229 9.25054 15.0015 8.78259 15.0015 8.20535C15.0015 7.6281 14.6229 7.16016 14.156 7.16016C13.6891 7.16016 13.3105 7.6281 13.3105 8.20535C13.3105 8.78259 13.6891 9.25054 14.156 9.25054Z" fill="black"/>
<path d="M13.9465 7.93526C14.0658 7.93526 14.1625 7.83869 14.1625 7.71958C14.1625 7.60047 14.0658 7.50391 13.9465 7.50391C13.8272 7.50391 13.7305 7.60047 13.7305 7.71958C13.7305 7.83869 13.8272 7.93526 13.9465 7.93526Z" fill="white"/>
<path fill-rule="evenodd" clip-rule="evenodd" d="M0.5625 15.5148C0.899485 17.6596 7.55742 18.3988 15.433 17.1658C17.0184 16.9175 18.5323 16.6082 19.9365 16.255V18.511C18.6293 18.8291 17.2319 19.109 15.774 19.3372C7.8984 20.5702 1.24046 19.8309 0.903473 17.6861L0.5625 15.5148ZM24.7801 17.0004C27.793 15.7986 29.6122 14.417 29.4242 13.22L29.0833 11.0488C29.2639 12.1996 27.5883 13.5212 24.7801 14.6897V17.0004Z" fill="#2156F2"/>
<path d="M22.1721 16.6282L24.7836 13.9853L25.4239 17.4709L22.1721 16.6282Z" fill="#2156F2"/>
<path d="M5.67746 13.278L3.06601 15.9209L2.42571 12.4354L5.67746 13.278Z" fill="#2156F2"/>
<path d="M5.67746 13.278L3.06601 15.9209L2.42571 12.4354L5.67746 13.278Z" fill="black" fill-opacity="0.3"/>
</svg>
