<svg width="160" height="160" viewBox="0 0 160 160" fill="none" xmlns="http://www.w3.org/2000/svg">
<rect width="160" height="160" fill="#EBF0FC"/>
<path d="M125.434 69.9025C125.434 95.8064 104.402 116.805 78.4574 116.805C52.5125 116.805 36.082 96.2312 32.289 78.6091C31.4063 74.5035 31.4311 71.3147 31.4807 69.9025C32.1543 50.847 48.9109 23 78.4574 23C104.402 23 125.434 43.9985 125.434 69.9025Z" fill="white"/>
<path d="M65.2937 118.347C61.0434 118.163 56.8286 119.476 53.2412 123.656C51.1142 126.133 50.0508 129.672 50.7598 132.15C52.2521 137.367 59.466 138.967 67.7752 137.459C75.5739 136.043 79.8277 132.504 79.1188 127.903C78.073 121.111 73.447 118.701 65.2937 118.347Z" fill="black"/>
<path d="M99.1827 118.347C103.433 118.163 107.648 119.476 111.235 123.656C113.362 126.133 114.426 129.672 113.717 132.15C112.224 137.367 105.011 138.967 96.7013 137.459C88.9026 136.043 84.6488 132.504 85.3577 127.903C86.4035 121.111 91.0295 118.701 99.1827 118.347Z" fill="black"/>
<path fill-rule="evenodd" clip-rule="evenodd" d="M157 71.3011C155.203 59.8622 119.694 55.9194 77.6905 62.4954C65.7523 64.3644 54.5741 66.8822 44.7295 69.7916V57.6825C54.1238 54.9966 64.6629 52.6698 75.872 50.9149C117.875 44.3389 153.384 48.2817 155.181 59.7206L157 71.3011ZM16.9102 68.4085C7.53683 73.4614 2.32256 78.7735 3.07089 83.5364L4.88926 95.116C4.1916 90.6708 8.68725 85.7473 16.9102 81.0027V68.4085Z" fill="#2156F2"/>
<path fill-rule="evenodd" clip-rule="evenodd" d="M157 71.3011C155.203 59.8622 119.694 55.9194 77.6905 62.4954C65.7523 64.3644 54.5741 66.8822 44.7295 69.7916V57.6825C54.1238 54.9966 64.6629 52.6698 75.872 50.9149C117.875 44.3389 153.384 48.2817 155.181 59.7206L157 71.3011ZM16.9102 68.4085C7.53683 73.4614 2.32256 78.7735 3.07089 83.5364L4.88926 95.116C4.1916 90.6708 8.68725 85.7473 16.9102 81.0027V68.4085Z" fill="black" fill-opacity="0.3"/>
<path d="M125.434 69.9025C125.434 95.8064 104.402 116.805 78.4574 116.805C52.5125 116.805 36.082 96.2312 32.289 78.6091C31.4063 74.5035 31.4311 71.3147 31.4807 69.9025C32.1543 50.847 48.9109 23 78.4574 23C104.402 23 125.434 43.9985 125.434 69.9025Z" fill="white"/>
<path d="M63.0931 49.3089C65.5834 49.3089 67.6021 46.8131 67.6021 43.7345C67.6021 40.6559 65.5834 38.1602 63.0931 38.1602C60.6028 38.1602 58.584 40.6559 58.584 43.7345C58.584 46.8131 60.6028 49.3089 63.0931 49.3089Z" fill="black"/>
<path d="M61.9743 42.2947C62.6106 42.2947 63.1264 41.7797 63.1264 41.1444C63.1264 40.5091 62.6106 39.9941 61.9743 39.9941C61.3381 39.9941 60.8223 40.5091 60.8223 41.1444C60.8223 41.7797 61.3381 42.2947 61.9743 42.2947Z" fill="white"/>
<path d="M75.513 49.3089C78.0033 49.3089 80.0221 46.8131 80.0221 43.7345C80.0221 40.6559 78.0033 38.1602 75.513 38.1602C73.0227 38.1602 71.0039 40.6559 71.0039 43.7345C71.0039 46.8131 73.0227 49.3089 75.513 49.3089Z" fill="black"/>
<path d="M74.3923 42.2947C75.0286 42.2947 75.5444 41.7797 75.5444 41.1444C75.5444 40.5091 75.0286 39.9941 74.3923 39.9941C73.756 39.9941 73.2402 40.5091 73.2402 41.1444C73.2402 41.7797 73.756 42.2947 74.3923 42.2947Z" fill="white"/>
<path fill-rule="evenodd" clip-rule="evenodd" d="M3 82.7461C4.79725 94.1851 40.3063 98.1278 82.3095 91.5518C90.7649 90.2274 98.839 88.5776 106.328 86.6939V98.726C99.3561 100.423 91.9033 101.915 84.128 103.132C42.1248 109.708 6.61577 105.766 4.81852 94.3266L3 82.7461ZM132.16 90.6696C148.229 84.26 157.932 76.8912 156.929 70.5073L155.111 58.9277C156.074 65.065 147.138 72.1139 132.16 78.3457V90.6696Z" fill="#2156F2"/>
<path d="M118.252 88.6871L132.18 74.5916L135.595 93.1812L118.252 88.6871Z" fill="#2156F2"/>
<path d="M30.2791 70.8109L16.3514 84.9065L12.9365 66.3168L30.2791 70.8109Z" fill="#2156F2"/>
<path d="M30.2791 70.8109L16.3514 84.9065L12.9365 66.3168L30.2791 70.8109Z" fill="black" fill-opacity="0.3"/>
</svg>
