<svg width="56" height="56" viewBox="0 0 56 56" fill="none" xmlns="http://www.w3.org/2000/svg">
<g clip-path="url(#clip0_184_2784)">
<circle cx="28" cy="28" r="28" fill="#EBF0FC"/>
<path d="M16 35.0769C16 35.587 16.2076 36.0761 16.5771 36.4367C16.9466 36.7974 17.4477 37 17.9703 37H38.0434C38.5659 37 39.0671 36.7974 39.4366 36.4367C39.8061 36.0761 40.0137 35.587 40.0137 35.0769V31.5385C39.2181 31.327 38.516 30.866 38.0154 30.2266C37.5148 29.5872 37.2436 28.8047 37.2436 28C37.2436 27.1953 37.5148 26.4128 38.0154 25.7734C38.516 25.134 39.2181 24.673 40.0137 24.4615V20.9231C40.0137 20.413 39.8061 19.9239 39.4366 19.5633C39.0671 19.2026 38.5659 19 38.0434 19H17.9703C17.4477 19 16.9466 19.2026 16.5771 19.5633C16.2076 19.9239 16 20.413 16 20.9231V24.4538C16.8023 24.6603 17.512 25.1201 18.0185 25.7616C18.5249 26.4031 18.7995 27.1902 18.7995 28C18.7995 28.8098 18.5249 29.5969 18.0185 30.2384C17.512 30.8799 16.8023 31.3397 16 31.5462V35.0769Z" stroke="#0B0B0B" stroke-linecap="round" stroke-linejoin="round"/>
<path d="M32.1631 19.0151V22.169" stroke="#0B0B0B" stroke-linecap="round" stroke-linejoin="round"/>
<path d="M32.1631 26.4229V29.5767" stroke="#0B0B0B" stroke-linecap="round" stroke-linejoin="round"/>
<path d="M32.1631 33.8462V37" stroke="#0B0B0B" stroke-linecap="round" stroke-linejoin="round"/>
<circle cx="40" cy="19" r="2.5" fill="#2156F2" stroke="#EBF0FC"/>
</g>
<defs>
<clipPath id="clip0_184_2784">
<rect width="56" height="56" fill="white"/>
</clipPath>
</defs>
</svg>
