<svg width="56" height="56" viewBox="0 0 56 56" fill="none" xmlns="http://www.w3.org/2000/svg">
<g clip-path="url(#clip0_184_2713)">
<circle cx="28" cy="28" r="28" fill="#EBF0FC"/>
<path d="M34.8465 17H22.1532C21.6723 17 21.211 17.1945 20.871 17.5407C20.5309 17.8869 20.3398 18.3565 20.3398 18.8462V37.3077C20.3398 37.7973 20.5309 38.2669 20.871 38.6131C21.211 38.9593 21.6723 39.1538 22.1532 39.1538H34.8465C35.3274 39.1538 35.7887 38.9593 36.1287 38.6131C36.4688 38.2669 36.6598 37.7973 36.6598 37.3077V18.8462C36.6598 18.3565 36.4688 17.8869 36.1287 17.5407C35.7887 17.1945 35.3274 17 34.8465 17Z" stroke="#0B0B0B" stroke-linecap="round" stroke-linejoin="round"/>
<path d="M20.3398 27.1538H36.6598" stroke="#0B0B0B" stroke-linecap="round" stroke-linejoin="round"/>
<path d="M23.9668 21.6152V22.5383" stroke="#0B0B0B" stroke-linecap="round" stroke-linejoin="round"/>
<path d="M23.0596 39.1538V41" stroke="#0B0B0B" stroke-linecap="round" stroke-linejoin="round"/>
<path d="M33.9395 39.1538V41" stroke="#0B0B0B" stroke-linecap="round" stroke-linejoin="round"/>
<circle cx="37" cy="17" r="2.5" fill="#2156F2" stroke="#EBF0FC"/>
</g>
<defs>
<clipPath id="clip0_184_2713">
<rect width="56" height="56" fill="white"/>
</clipPath>
</defs>
</svg>
