<svg width="56" height="56" viewBox="0 0 56 56" fill="none" xmlns="http://www.w3.org/2000/svg">
<g clip-path="url(#clip0_184_2817)">
<circle cx="28" cy="28" r="28" fill="#EBF0FC"/>
<path d="M15 37.3334V25.938C15 25.3857 15.4477 24.938 16 24.938H31.8606C32.4129 24.938 32.8606 25.3857 32.8606 25.938V37.3334C32.8606 37.8857 32.4129 38.3334 31.8606 38.3334H21.8639C21.5987 38.3334 21.3443 38.4388 21.1568 38.6263L18.969 40.8141L17.2848 38.7088C17.095 38.4715 16.8077 38.3334 16.5039 38.3334H16C15.4477 38.3334 15 37.8857 15 37.3334Z" fill="#EBF0FC" stroke="#000F3D" stroke-linejoin="round"/>
<path d="M41.791 29.3955V18C41.791 17.4477 41.3433 17 40.791 17H24.9304C24.3781 17 23.9304 17.4477 23.9304 18V29.3955C23.9304 29.9477 24.3781 30.3955 24.9304 30.3955H34.9271C35.1924 30.3955 35.4467 30.5008 35.6342 30.6884L37.822 32.8761L39.5063 30.7708C39.696 30.5335 39.9833 30.3955 40.2871 30.3955H40.791C41.3433 30.3955 41.791 29.9477 41.791 29.3955Z" fill="#EBF0FC" stroke="#000F3D" stroke-linejoin="round"/>
<path d="M35.0777 27.1286L35.0778 27.1288C35.1446 27.3158 35.3188 27.45 35.5329 27.45H36.2169C36.3949 27.45 36.5272 27.2727 36.4684 27.0962L36.4684 27.0962L36.4678 27.0945L33.54 19.2592C33.54 19.2591 33.5399 19.259 33.5399 19.2588C33.4725 19.0707 33.2974 18.95 33.0969 18.95H32.3289C32.1284 18.95 31.9533 19.0707 31.8859 19.2589C31.8859 19.259 31.8859 19.2591 31.8858 19.2592L28.9704 27.0937C28.8966 27.2724 29.0318 27.45 29.2089 27.45H29.9049C30.1079 27.45 30.2815 27.315 30.348 27.1288L30.3481 27.1286L30.9483 25.422H34.4775L35.0777 27.1286ZM31.5912 24.23C31.4878 24.23 31.4154 24.1278 31.4497 24.0303L32.5722 20.8353C32.6191 20.7018 32.8078 20.7016 32.8551 20.835L33.9872 24.0299C34.0218 24.1275 33.9494 24.23 33.8459 24.23H31.5912Z" fill="#000F3D" stroke="#000F3D" stroke-width="0.1"/>
<circle cx="42" cy="17" r="2.5" fill="#2156F2" stroke="#EBF0FC"/>
</g>
<defs>
<clipPath id="clip0_184_2817">
<rect width="56" height="56" fill="white"/>
</clipPath>
</defs>
</svg>
