<svg width="48" height="48" viewBox="0 0 48 48" fill="none" xmlns="http://www.w3.org/2000/svg">
<g clip-path="url(#clip0_317_8745)">
<path d="M26.7545 46.6501C25.7031 48.2253 23.45 48.4503 21.6476 47.1752L1.37009 32.9232C0.0182581 31.9481 -0.432353 30.0728 0.468869 28.7226L18.268 1.49392C19.1692 0.143732 21.1219 -0.38134 22.699 0.293752L45.6802 10.4201C47.7079 11.3203 48.6091 13.3455 47.5577 14.9208L26.7545 46.6501Z" fill="#D3976E"/>
<path d="M23.5237 44.8505L2.57031 30.5236L20.9703 2.46973L44.3269 13.1212L23.5237 44.8505Z" fill="white"/>
<path d="M36.7433 11.0946C36.4429 11.5447 35.767 11.6947 35.1662 11.3947L26.4544 7.26912C25.9287 7.04409 25.7785 6.51902 26.0789 6.06896L27.4307 3.96867C27.7311 3.51861 28.3319 3.36859 28.8577 3.59362L37.7948 7.56917C38.3956 7.7942 38.5458 8.39428 38.3205 8.84434L36.7433 11.0946Z" fill="#94989B"/>
<path d="M35.0916 8.31951L29.459 5.76916L30.8859 3.66887C31.1863 3.21881 31.7871 3.06879 32.3129 3.29382L36.0679 4.94404C36.5937 5.16907 36.819 5.76916 36.5186 6.14421L35.0916 8.31951Z" fill="#333333"/>
<path d="M35.4662 19.947L23.7503 13.8711L24.3511 12.971L36.1421 18.8968L35.4662 19.947ZM19.9952 13.2711C19.845 13.3461 19.6948 13.2711 19.6948 13.196L18.9438 11.0958C18.8687 10.9457 19.0189 10.7957 19.1691 10.7957L19.4695 10.7207C19.6197 10.7207 19.7699 10.7957 19.845 10.8707L20.2205 11.9959C20.2956 12.1459 20.4458 12.1459 20.5209 12.0709L22.6989 10.8707C22.8491 10.7957 22.9993 10.7957 23.0744 10.9457L23.2246 11.1708C23.2997 11.3208 23.2997 11.4708 23.1495 11.5458L19.9952 13.2711Z" fill="#83BF4F"/>
<path d="M31.6359 25.7978L20.0702 19.4219L20.7461 18.4468L32.3118 24.8227L31.6359 25.7978ZM17.8923 19.647L14.5127 17.6967L16.4653 14.6963L19.92 16.5715L17.8923 19.647ZM27.8057 31.6486L16.4653 24.8977L17.1413 23.9976L28.4816 30.6735L27.8057 31.6486ZM14.2874 25.1227L10.9829 23.0974L12.9356 20.097L16.3151 22.0473L14.2874 25.1227ZM23.9755 37.5744L12.8605 30.4484L13.4613 29.4733L24.5763 36.5243L23.9755 37.5744ZM10.7576 30.5985L7.45312 28.4232L9.40577 25.4228L12.7103 27.523L10.7576 30.5985Z" fill="#B0BDC6"/>
</g>
<defs>
<clipPath id="clip0_317_8745">
<rect width="48" height="48" fill="white"/>
</clipPath>
</defs>
</svg>
