<svg width="48" height="48" viewBox="0 0 48 48" fill="none" xmlns="http://www.w3.org/2000/svg">
<g clip-path="url(#clip0_317_8770)">
<path d="M5.94922 30.8425L29.8702 6.93262L41.0589 18.122L17.1372 42.0318L5.94922 30.8425Z" fill="#FFCE31"/>
<path d="M45.9749 3.44933L44.5499 2.02461C41.8498 -0.67487 37.4997 -0.67487 34.7247 2.02461L29.8496 6.89867L41.0998 18.1465L45.9749 13.2724C48.675 10.573 48.675 6.14881 45.9749 3.44933Z" fill="#ED4C5C"/>
<path d="M26.8359 9.9802L29.911 6.9043L41.1012 18.0921L38.0261 21.1673L26.8359 9.9802Z" fill="#93A2AA"/>
<path d="M28.002 11.1464L31.077 8.07129L39.8814 16.8731L36.8049 19.9475L28.002 11.1464Z" fill="#C7D3D8"/>
<path d="M5.92392 30.8184L1.04883 43.5659L4.42389 46.9403L17.1741 42.0662L5.92392 30.8184Z" fill="#FED0AC"/>
<path d="M0.224115 45.8158C-0.450898 47.6155 0.449119 48.4403 2.24915 47.7654L8.39926 45.4409L2.62416 39.667L0.224115 45.8158Z" fill="#333333"/>
<path d="M5.91797 30.8753L26.8134 9.98438L30.5259 13.6962L9.63054 34.5871L5.91797 30.8753Z" fill="#FFDF85"/>
<path d="M13.4258 38.349L34.3212 17.458L38.0337 21.1698L17.1383 42.0608L13.4258 38.349Z" fill="#FF8736"/>
</g>
<defs>
<clipPath id="clip0_317_8770">
<rect width="48" height="48" fill="white"/>
</clipPath>
</defs>
</svg>
