<svg width="36" height="36" viewBox="0 0 36 36" fill="none" xmlns="http://www.w3.org/2000/svg">
<rect x="0.5" y="0.5" width="35" height="35" rx="17.5" fill="#FDFDFD"/>
<path d="M17.8571 25.8571C21.8571 25.8571 24.7143 24.4423 24.7143 21.2926C24.7143 17.8697 23 15.5874 19.5714 13.8754L20.92 12.1406C20.9887 12.0268 21.026 11.8968 21.0281 11.7639C21.0302 11.631 20.997 11.4999 20.932 11.384C20.8669 11.2681 20.7723 11.1715 20.6578 11.104C20.5433 11.0366 20.4129 11.0007 20.28 11H15.4343C15.3017 11.0014 15.1717 11.0377 15.0576 11.1053C14.9435 11.1729 14.8492 11.2695 14.7843 11.3851C14.7194 11.5008 14.6862 11.6316 14.6879 11.7642C14.6897 11.8968 14.7263 12.0266 14.7943 12.1406L16.1429 13.8869C12.7143 15.6103 11 17.8926 11 21.3154C11 24.4423 13.8571 25.8571 17.8571 25.8571Z" stroke="#2156F2" stroke-width="1.2" stroke-linecap="round" stroke-linejoin="round"/>
<path d="M19.4381 18.2071C19.3529 17.9654 19.1948 17.7561 18.9856 17.6081C18.7764 17.4601 18.5264 17.3807 18.2701 17.3809H17.3124C17.0395 17.3803 16.7761 17.4808 16.5728 17.6628C16.3696 17.8449 16.2409 18.0958 16.2115 18.3671C16.1821 18.6383 16.2542 18.9109 16.4137 19.1323C16.5733 19.3536 16.8092 19.5081 17.0758 19.566L18.5353 19.886C18.8326 19.9523 19.0952 20.1259 19.2726 20.3736C19.4501 20.6213 19.5301 20.9256 19.4973 21.2286C19.4644 21.5315 19.3212 21.8117 19.0948 22.0156C18.8684 22.2195 18.5748 22.3329 18.2701 22.334H17.4461C16.9067 22.334 16.4484 21.9889 16.2781 21.5089" stroke="#2156F2" stroke-width="1.2" stroke-linecap="round" stroke-linejoin="round"/>
<path d="M17.8574 17.3803V16.1426" stroke="#2156F2" stroke-width="1.2" stroke-linecap="round" stroke-linejoin="round"/>
<path d="M17.8574 23.5717V22.334" stroke="#2156F2" stroke-width="1.2" stroke-linecap="round" stroke-linejoin="round"/>
<rect x="0.5" y="0.5" width="35" height="35" rx="17.5" stroke="#2156F2"/>
</svg>
