<svg width="36" height="36" viewBox="0 0 36 36" fill="none" xmlns="http://www.w3.org/2000/svg">
<rect x="0.5" y="0.5" width="35" height="35" rx="17.5" fill="#FDFDFD"/>
<g clip-path="url(#clip0_317_7080)">
<path d="M15.7151 23.9885L10.5723 25.4285L12.0123 20.2856L21.4294 10.9142C21.5358 10.8053 21.663 10.7188 21.8033 10.6598C21.9436 10.6007 22.0943 10.5703 22.2466 10.5703C22.3988 10.5703 22.5495 10.6007 22.6898 10.6598C22.8301 10.7188 22.9573 10.8053 23.0637 10.9142L25.0866 12.9485C25.1935 13.0548 25.2784 13.1812 25.3364 13.3205C25.3943 13.4597 25.4241 13.6091 25.4241 13.7599C25.4241 13.9107 25.3943 14.0601 25.3364 14.1993C25.2784 14.3386 25.1935 14.465 25.0866 14.5713L15.7151 23.9885Z" stroke="#2156F2" stroke-width="1.2" stroke-linecap="round" stroke-linejoin="round"/>
</g>
<rect x="0.5" y="0.5" width="35" height="35" rx="17.5" stroke="#2156F2"/>
<defs>
<clipPath id="clip0_317_7080">
<rect width="16" height="16" fill="white" transform="translate(10 10)"/>
</clipPath>
</defs>
</svg>
