<svg width="36" height="36" viewBox="0 0 36 36" fill="none" xmlns="http://www.w3.org/2000/svg">
<rect x="0.5" y="0.5" width="35" height="35" rx="17.5" fill="#FDFDFD"/>
<path d="M25.4294 15.7147C25.4294 15.4116 25.309 15.1209 25.0947 14.9066C24.8803 14.6923 24.5897 14.5718 24.2866 14.5718H22.0008L20.2866 12.2861H15.7151L14.0008 14.5718H11.7151C11.412 14.5718 11.1213 14.6923 10.907 14.9066C10.6927 15.1209 10.5723 15.4116 10.5723 15.7147V22.5718C10.5723 22.875 10.6927 23.1656 10.907 23.38C11.1213 23.5943 11.412 23.7147 11.7151 23.7147H24.2866C24.5897 23.7147 24.8803 23.5943 25.0947 23.38C25.309 23.1656 25.4294 22.875 25.4294 22.5718V15.7147Z" stroke="#2156F2" stroke-width="1.14286" stroke-linecap="round" stroke-linejoin="round"/>
<path d="M18.0011 21.1429C18.6831 21.1429 19.3372 20.8719 19.8194 20.3897C20.3016 19.9075 20.5725 19.2534 20.5725 18.5714C20.5725 17.8894 20.3016 17.2354 19.8194 16.7532C19.3372 16.2709 18.6831 16 18.0011 16C17.3191 16 16.6651 16.2709 16.1828 16.7532C15.7006 17.2354 15.4297 17.8894 15.4297 18.5714C15.4297 19.2534 15.7006 19.9075 16.1828 20.3897C16.6651 20.8719 17.3191 21.1429 18.0011 21.1429Z" stroke="#2156F2" stroke-width="1.14286" stroke-linecap="round" stroke-linejoin="round"/>
<rect x="0.5" y="0.5" width="35" height="35" rx="17.5" stroke="#2156F2"/>
</svg>
