<svg width="204" height="204" viewBox="0 0 204 204" fill="none" xmlns="http://www.w3.org/2000/svg">
<path d="M83.1434 124.285H120.858C121.767 124.285 122.639 123.924 123.282 123.281C123.925 122.638 124.286 121.766 124.286 120.857V83.1424C124.286 82.2331 123.925 81.3611 123.282 80.7181C122.639 80.0751 121.767 79.7139 120.858 79.7139H83.1434C82.2341 79.7139 81.362 80.0751 80.719 80.7181C80.0761 81.3611 79.7148 82.2331 79.7148 83.1424V120.857C79.7148 121.766 80.0761 122.638 80.719 123.281C81.362 123.924 82.2341 124.285 83.1434 124.285Z" stroke="#AFAFAF" stroke-width="1.2" stroke-linecap="round" stroke-linejoin="round"/>
<path d="M84 124.285L109.029 100.697C109.337 100.44 109.725 100.3 110.126 100.3C110.527 100.3 110.915 100.44 111.223 100.697L124.286 110.057" stroke="#AFAFAF" stroke-width="1.2" stroke-linecap="round" stroke-linejoin="round"/>
<path d="M93.43 98.5709C94.7939 98.5709 96.102 98.029 97.0665 97.0646C98.031 96.1001 98.5728 94.792 98.5728 93.428C98.5728 92.064 98.031 90.7559 97.0665 89.7915C96.102 88.827 94.7939 88.2852 93.43 88.2852C92.066 88.2852 90.7579 88.827 89.7934 89.7915C88.8289 90.7559 88.2871 92.064 88.2871 93.428C88.2871 94.792 88.8289 96.1001 89.7934 97.0646C90.7579 98.029 92.066 98.5709 93.43 98.5709Z" stroke="#AFAFAF" stroke-width="1.2" stroke-linecap="round" stroke-linejoin="round"/>
<rect x="0.5" y="0.5" width="203" height="203" rx="7.5" stroke="#AFAFAF" stroke-dasharray="8 8"/>
</svg>
