<svg width="24" height="24" viewBox="0 0 24 24" fill="none" xmlns="http://www.w3.org/2000/svg">
<path d="M21 11.9169C21.0014 11.7247 20.9627 11.5343 20.8864 11.3579C20.8102 11.1815 20.6979 11.0229 20.557 10.8923L12 3L3.44311 10.8923C3.30219 11.023 3.19002 11.1816 3.11374 11.358C3.03745 11.5344 2.99873 11.7247 3.00003 11.9169V19.6154C3.00003 19.9826 3.14591 20.3348 3.40558 20.5945C3.66524 20.8541 4.01742 21 4.38465 21H19.6154C19.9826 21 20.3348 20.8541 20.5945 20.5945C20.8542 20.3348 21 19.9826 21 19.6154V11.9169Z" stroke="#797979" stroke-width="1.2" stroke-linecap="round" stroke-linejoin="round"/>
<path d="M12 20.9999V15.4614" stroke="#797979" stroke-width="1.2" stroke-linecap="round" stroke-linejoin="round"/>
</svg>
