<svg width="24" height="24" viewBox="0 0 24 24" fill="none" xmlns="http://www.w3.org/2000/svg">
<path d="M11.875 11.25C12.969 11.25 14.0182 10.8154 14.7918 10.0418C15.5654 9.26823 16 8.21902 16 7.125C16 6.03098 15.5654 4.98177 14.7918 4.20818C14.0182 3.4346 12.969 3 11.875 3C10.781 3 9.73177 3.4346 8.95818 4.20818C8.1846 4.98177 7.75 6.03098 7.75 7.125C7.75 8.21902 8.1846 9.26823 8.95818 10.0418C9.73177 10.8154 10.781 11.25 11.875 11.25Z" stroke="#797979" stroke-width="1.2" stroke-linecap="round" stroke-linejoin="round"/>
<path d="M19.75 21C19.2148 19.2576 18.1638 17.7377 16.7485 16.6593C15.3332 15.581 13.6267 15 11.875 15C10.1233 15 8.4168 15.581 7.00151 16.6593C5.58622 17.7377 4.53523 19.2576 4 21H19.75Z" stroke="#797979" stroke-width="1.2" stroke-linecap="round" stroke-linejoin="round"/>
</svg>
