<svg width="24" height="24" viewBox="0 0 24 24" fill="none" xmlns="http://www.w3.org/2000/svg">
<path d="M12.0047 12.3491C11.912 12.3491 11.8231 12.3123 11.7576 12.2468C11.6921 12.1813 11.6553 12.0924 11.6553 11.9998C11.6553 11.9071 11.6921 11.8182 11.7576 11.7527C11.8231 11.6872 11.912 11.6504 12.0047 11.6504" stroke="#2156F2" stroke-width="1.2" stroke-linecap="round" stroke-linejoin="round"/>
<path d="M12.0049 12.3491C12.0975 12.3491 12.1864 12.3123 12.2519 12.2468C12.3175 12.1813 12.3543 12.0924 12.3543 11.9998C12.3543 11.9071 12.3175 11.8182 12.2519 11.7527C12.1864 11.6872 12.0975 11.6504 12.0049 11.6504" stroke="#2156F2" stroke-width="1.2" stroke-linecap="round" stroke-linejoin="round"/>
<path d="M8.16286 12.3491C8.07019 12.3491 7.98133 12.3123 7.91581 12.2468C7.85029 12.1813 7.81348 12.0924 7.81348 11.9998C7.81348 11.9071 7.85029 11.8182 7.91581 11.7527C7.98133 11.6872 8.07019 11.6504 8.16286 11.6504" stroke="#2156F2" stroke-width="1.2" stroke-linecap="round" stroke-linejoin="round"/>
<path d="M8.16309 12.3491C8.25575 12.3491 8.34461 12.3123 8.41013 12.2468C8.47566 12.1813 8.51246 12.0924 8.51246 11.9998C8.51246 11.9071 8.47566 11.8182 8.41013 11.7527C8.34461 11.6872 8.25575 11.6504 8.16309 11.6504" stroke="#2156F2" stroke-width="1.2" stroke-linecap="round" stroke-linejoin="round"/>
<path d="M15.8494 12.3496C15.7567 12.3496 15.6679 12.3128 15.6023 12.2473C15.5368 12.1818 15.5 12.0929 15.5 12.0003C15.5 11.9076 15.5368 11.8187 15.6023 11.7532C15.6679 11.6877 15.7567 11.6509 15.8494 11.6509" stroke="#2156F2" stroke-width="1.2" stroke-linecap="round" stroke-linejoin="round"/>
<path d="M15.8496 12.3496C15.9423 12.3496 16.0311 12.3128 16.0967 12.2473C16.1622 12.1818 16.199 12.0929 16.199 12.0003C16.199 11.9076 16.1622 11.8187 16.0967 11.7532C16.0311 11.6877 15.9423 11.6509 15.8496 11.6509" stroke="#2156F2" stroke-width="1.2" stroke-linecap="round" stroke-linejoin="round"/>
<path d="M12 3C10.372 3.00049 8.77458 3.44256 7.37794 4.27913C5.98131 5.1157 4.83774 6.31544 4.06906 7.75056C3.30037 9.18568 2.93535 10.8024 3.01288 12.4286C3.09041 14.0548 3.60759 15.6295 4.50932 16.9849L3 21L8.05481 20.086C9.2718 20.6808 10.6073 20.9932 11.9619 20.9999C13.3164 21.0066 14.655 20.7075 15.8778 20.1249C17.1006 19.5422 18.1762 18.6911 19.0243 17.6349C19.8723 16.5787 20.4711 15.3447 20.7758 14.0248C21.0806 12.705 21.0835 11.3334 20.7843 10.0123C20.4852 8.69124 19.8917 7.4547 19.0481 6.39492C18.2045 5.33513 17.1325 4.47944 15.9122 3.89162C14.6918 3.3038 13.3545 2.99902 12 3Z" stroke="#2156F2" stroke-width="1.2" stroke-linecap="round" stroke-linejoin="round"/>
</svg>
