<svg width="40" height="17" viewBox="0 0 40 17" fill="none" xmlns="http://www.w3.org/2000/svg">
<g clip-path="url(#clip0_446_7541)">
<rect width="40" height="17" rx="8" fill="#2156F2" fill-opacity="0.08"/>
<path d="M15.3105 4.92969V12H14.2266V6.00391H14.1875L12.498 7.10742V6.08203L14.2559 4.92969H15.3105ZM19.7422 11.0918C19.3613 11.0869 19.0439 10.7793 19.0488 10.3984C19.0439 10.0176 19.3613 9.70508 19.7422 9.70508C20.1182 9.70508 20.4307 10.0176 20.4355 10.3984C20.4307 10.7793 20.1182 11.0869 19.7422 11.0918ZM19.0488 6.54102C19.0439 6.16016 19.3613 5.84766 19.7422 5.84766C20.1182 5.84766 20.4307 6.16016 20.4355 6.54102C20.4307 6.92188 20.1182 7.22949 19.7422 7.23438C19.3613 7.22949 19.0439 6.92188 19.0488 6.54102ZM26.3125 4.92969V12H25.2285V6.00391H25.1895L23.5 7.10742V6.08203L25.2578 4.92969H26.3125Z" fill="#2156F2"/>
</g>
<defs>
<clipPath id="clip0_446_7541">
<rect width="40" height="17" fill="white"/>
</clipPath>
</defs>
</svg>
