<svg width="40" height="17" viewBox="0 0 40 17" fill="none" xmlns="http://www.w3.org/2000/svg">
<g clip-path="url(#clip0_207_3802)">
<rect width="40" height="17" rx="8" fill="#2156F2" fill-opacity="0.08"/>
<path d="M15.3105 12H14.2266V6.00391H14.1875L12.498 7.10742V6.08203L14.2559 4.92969H15.3105V12ZM19.7422 11.0918C19.6185 11.0918 19.5029 11.0609 19.3955 10.999C19.2913 10.9372 19.2067 10.8542 19.1416 10.75C19.0798 10.6458 19.0488 10.5319 19.0488 10.4082C19.0488 10.2812 19.0798 10.1641 19.1416 10.0566C19.2035 9.94922 19.2865 9.86458 19.3906 9.80273C19.498 9.73763 19.6152 9.70508 19.7422 9.70508C19.8659 9.70508 19.9798 9.736 20.084 9.79785C20.1914 9.8597 20.276 9.94434 20.3379 10.0518C20.403 10.1592 20.4355 10.2747 20.4355 10.3984C20.4355 10.5221 20.403 10.6377 20.3379 10.7451C20.276 10.8493 20.1914 10.9339 20.084 10.999C19.9798 11.0609 19.8659 11.0918 19.7422 11.0918ZM19.7422 7.23438C19.6185 7.23438 19.5029 7.20345 19.3955 7.1416C19.2913 7.07975 19.2067 6.99674 19.1416 6.89258C19.0798 6.78841 19.0488 6.67448 19.0488 6.55078C19.0488 6.42383 19.0798 6.30664 19.1416 6.19922C19.2035 6.0918 19.2865 6.00716 19.3906 5.94531C19.498 5.88021 19.6152 5.84766 19.7422 5.84766C19.8659 5.84766 19.9798 5.87858 20.084 5.94043C20.1914 6.00228 20.276 6.08691 20.3379 6.19434C20.403 6.30176 20.4355 6.41732 20.4355 6.54102C20.4355 6.66471 20.403 6.78027 20.3379 6.8877C20.276 6.99186 20.1914 7.0765 20.084 7.1416C19.9798 7.20345 19.8659 7.23438 19.7422 7.23438ZM26.3125 12H25.2285V6.00391H25.1895L23.5 7.10742V6.08203L25.2578 4.92969H26.3125V12Z" fill="#2156F2"/>
</g>
<defs>
<clipPath id="clip0_207_3802">
<rect width="40" height="17" fill="white"/>
</clipPath>
</defs>
</svg>
