<svg width="42" height="17" viewBox="0 0 42 17" fill="none" xmlns="http://www.w3.org/2000/svg">
<g clip-path="url(#clip0_207_3792)">
<rect width="42" height="17" rx="8" fill="#2156F2" fill-opacity="0.08"/>
<path d="M16.3066 4.60742C16.9251 4.60742 17.4801 4.70508 17.9717 4.90039C18.4632 5.0957 18.8473 5.36914 19.124 5.7207C19.4007 6.06901 19.5391 6.47266 19.5391 6.93164C19.5391 7.36133 19.4219 7.74382 19.1875 8.0791C18.9531 8.41113 18.626 8.67806 18.2061 8.87988C17.7894 9.07845 17.3092 9.20052 16.7656 9.24609V10.9648H20.3301V11.7363H12.3223V10.9648H15.8477V9.24609C15.3073 9.20052 14.8271 9.07845 14.4072 8.87988C13.9906 8.67806 13.665 8.40951 13.4307 8.07422C13.1995 7.73893 13.084 7.35807 13.084 6.93164C13.084 6.47591 13.2223 6.07227 13.499 5.7207C13.7757 5.36914 14.1582 5.0957 14.6465 4.90039C15.1348 4.70508 15.6882 4.60742 16.3066 4.60742ZM13.9824 6.93164C13.9824 7.25391 14.0817 7.53548 14.2803 7.77637C14.4788 8.01725 14.7539 8.2028 15.1055 8.33301C15.457 8.46322 15.8574 8.52995 16.3066 8.5332C16.7591 8.52995 17.1611 8.46322 17.5127 8.33301C17.8643 8.2028 18.1393 8.01725 18.3379 7.77637C18.5397 7.53548 18.6406 7.25391 18.6406 6.93164C18.6406 6.61914 18.5397 6.34408 18.3379 6.10645C18.1393 5.86882 17.8626 5.68652 17.5078 5.55957C17.1562 5.42936 16.7559 5.36589 16.3066 5.36914C15.8607 5.36589 15.4603 5.42936 15.1055 5.55957C14.7539 5.68652 14.4788 5.87044 14.2803 6.11133C14.0817 6.34896 13.9824 6.6224 13.9824 6.93164ZM25.793 5.71094H24.8359V9.82715C25.2168 9.80111 25.6204 9.76367 26.0469 9.71484L26.1055 10.3984C25.3079 10.5254 24.4583 10.6117 23.5566 10.6572C22.6549 10.6995 21.7207 10.7207 20.7539 10.7207L20.6562 9.94922L21.7695 9.93457V5.71094H20.9199V4.94922H25.793V5.71094ZM22.6777 9.91992C23.1074 9.91016 23.5306 9.89551 23.9473 9.87598V5.71094H22.6777V9.91992ZM25.5098 7.3418H27.0918V4.08008H28.0098V12.8301H27.0918V8.10352H25.5098V7.3418Z" fill="#2156F2"/>
</g>
<defs>
<clipPath id="clip0_207_3792">
<rect width="42" height="17" fill="white"/>
</clipPath>
</defs>
</svg>
