<svg width="24" height="24" viewBox="0 0 24 24" fill="none" xmlns="http://www.w3.org/2000/svg">
<path d="M8.48611 18.1869C10.2281 19.0387 12.2201 19.2287 14.0917 18.7217C15.9633 18.2147 17.5871 17.0452 18.661 15.4307C19.7349 13.8161 20.1859 11.8665 19.93 9.94439C19.6742 8.02227 18.7289 6.25851 17.27 4.98114C15.8112 3.70376 13.938 2.99974 11.999 3C10.0599 3.00026 8.18695 3.7048 6.72844 4.98256C5.26992 6.26033 4.32513 8.02435 4.06979 9.94654C3.81445 11.8687 4.26594 13.8182 5.3403 15.4325M8.48611 18.1869L4 18.9992L5.3403 15.4325M8.48611 18.1869H8.49227M5.3403 15.4325L5.34153 15.43" stroke="#AFAFAF" stroke-linecap="round" stroke-linejoin="round"/>
</svg>
