<svg width="13" height="14" viewBox="0 0 13 14" fill="none" xmlns="http://www.w3.org/2000/svg">
<g clip-path="url(#clip0_317_9064)">
<path d="M0 2C0 0.89543 0.895431 0 2 0H11C12.1046 0 13 0.895431 13 2V14H0V2Z" fill="#2156F2"/>
<path d="M7.992 11.084C7.8 11.084 7.648 11.032 7.536 10.928C7.424 10.816 7.368 10.664 7.368 10.472V9.284H4.152C3.952 9.284 3.792 9.24 3.672 9.152C3.552 9.064 3.492 8.928 3.492 8.744C3.492 8.64 3.516 8.528 3.564 8.408C3.62 8.288 3.716 8.132 3.852 7.94L7.344 2.864C7.432 2.728 7.532 2.628 7.644 2.564C7.756 2.492 7.884 2.456 8.028 2.456C8.196 2.456 8.332 2.508 8.436 2.612C8.548 2.708 8.604 2.86 8.604 3.068V8.24H9.36C9.552 8.24 9.692 8.284 9.78 8.372C9.876 8.46 9.924 8.588 9.924 8.756C9.924 8.932 9.876 9.064 9.78 9.152C9.692 9.24 9.552 9.284 9.36 9.284H8.604V10.472C8.604 10.664 8.548 10.816 8.436 10.928C8.332 11.032 8.184 11.084 7.992 11.084ZM7.368 8.24V4.004H7.692L4.56 8.576V8.24H7.368Z" fill="#FDFDFD"/>
</g>
<defs>
<clipPath id="clip0_317_9064">
<rect width="13" height="14" fill="white"/>
</clipPath>
</defs>
</svg>
