<svg width="13" height="14" viewBox="0 0 13 14" fill="none" xmlns="http://www.w3.org/2000/svg">
<g clip-path="url(#clip0_317_9051)">
<path d="M0 2C0 0.89543 0.895431 0 2 0H11C12.1046 0 13 0.895431 13 2V14H0V2Z" fill="#2156F2"/>
<path d="M4.86 11C4.692 11 4.56 10.952 4.464 10.856C4.368 10.76 4.32 10.632 4.32 10.472C4.32 10.304 4.368 10.176 4.464 10.088C4.56 10 4.692 9.956 4.86 9.956H6.324V3.572H6.948L5.196 4.688C5.068 4.76 4.948 4.788 4.836 4.772C4.732 4.756 4.64 4.712 4.56 4.64C4.488 4.568 4.436 4.48 4.404 4.376C4.38 4.272 4.388 4.164 4.428 4.052C4.476 3.94 4.56 3.848 4.68 3.776L6.336 2.732C6.472 2.652 6.6 2.588 6.72 2.54C6.848 2.484 6.968 2.456 7.08 2.456C7.216 2.456 7.328 2.496 7.416 2.576C7.512 2.648 7.56 2.772 7.56 2.948V9.956H8.904C9.08 9.956 9.216 10 9.312 10.088C9.408 10.176 9.456 10.304 9.456 10.472C9.456 10.64 9.408 10.772 9.312 10.868C9.216 10.956 9.08 11 8.904 11H4.86Z" fill="#FDFDFD"/>
</g>
<defs>
<clipPath id="clip0_317_9051">
<rect width="13" height="14" fill="white"/>
</clipPath>
</defs>
</svg>
