<svg width="13" height="14" viewBox="0 0 13 14" fill="none" xmlns="http://www.w3.org/2000/svg">
<g clip-path="url(#clip0_317_9055)">
<path d="M0 2C0 0.89543 0.895431 0 2 0H11C12.1046 0 13 0.895431 13 2V14H0V2Z" fill="#2156F2"/>
<path d="M4.572 11C4.356 11 4.2 10.952 4.104 10.856C4.008 10.752 3.96 10.612 3.96 10.436C3.96 10.324 3.988 10.216 4.044 10.112C4.1 10.008 4.18 9.9 4.284 9.788L6.84 7.052C7.232 6.636 7.512 6.256 7.68 5.912C7.856 5.56 7.944 5.208 7.944 4.856C7.944 4.408 7.808 4.068 7.536 3.836C7.264 3.604 6.864 3.488 6.336 3.488C6.016 3.488 5.708 3.536 5.412 3.632C5.116 3.728 4.82 3.884 4.524 4.1C4.404 4.18 4.292 4.216 4.188 4.208C4.084 4.2 3.992 4.16 3.912 4.088C3.84 4.016 3.792 3.928 3.768 3.824C3.744 3.72 3.748 3.612 3.78 3.5C3.812 3.388 3.888 3.292 4.008 3.212C4.336 2.964 4.716 2.772 5.148 2.636C5.58 2.5 6.02 2.432 6.468 2.432C7.052 2.432 7.544 2.524 7.944 2.708C8.352 2.884 8.66 3.144 8.868 3.488C9.076 3.832 9.18 4.252 9.18 4.748C9.18 5.084 9.124 5.412 9.012 5.732C8.908 6.052 8.744 6.38 8.52 6.716C8.304 7.044 8.02 7.392 7.668 7.76L5.244 10.304V9.956H9.06C9.236 9.956 9.372 10 9.468 10.088C9.564 10.176 9.612 10.304 9.612 10.472C9.612 10.64 9.564 10.772 9.468 10.868C9.372 10.956 9.236 11 9.06 11H4.572Z" fill="#FDFDFD"/>
</g>
<defs>
<clipPath id="clip0_317_9055">
<rect width="13" height="14" fill="white"/>
</clipPath>
</defs>
</svg>
