<svg width="24" height="24" viewBox="0 0 24 24" fill="none" xmlns="http://www.w3.org/2000/svg">
<path d="M11.2402 7.81075L12.9134 6.13761C13.6753 5.40005 14.6966 4.99152 15.7569 5.00013C16.8173 5.00874 17.8318 5.4338 18.5816 6.18362C19.3315 6.93345 19.7565 7.94796 19.7651 9.00834C19.7737 10.0687 19.3652 11.09 18.6277 11.8519L16.9545 13.525" stroke="#2156F2" stroke-width="1.14286" stroke-linecap="round" stroke-linejoin="round"/>
<path d="M13.525 16.9545L11.8519 18.6277C11.09 19.3652 10.0687 19.7737 9.00834 19.7651C7.94796 19.7565 6.93345 19.3315 6.18362 18.5816C5.4338 17.8318 5.00874 16.8173 5.00013 15.7569C4.99152 14.6966 5.40005 13.6753 6.13761 12.9134L7.81075 11.2402" stroke="#2156F2" stroke-width="1.14286" stroke-linecap="round" stroke-linejoin="round"/>
<path d="M14.6671 10.0957L10.0957 14.6671" stroke="#2156F2" stroke-width="1.14286" stroke-linecap="round" stroke-linejoin="round"/>
</svg>
