<svg width="56" height="56" viewBox="0 0 56 56" fill="none" xmlns="http://www.w3.org/2000/svg">
<g clip-path="url(#clip0_184_2902)">
<circle cx="28" cy="28" r="28" fill="#EBF0FC"/>
<path d="M24.7029 23.844L31.3078 30.4489L24.9727 36.7858C24.0968 37.6616 22.9088 38.1536 21.6702 38.1536C20.4316 38.1536 19.2437 37.6616 18.3678 36.7858C17.492 35.9099 17 34.722 17 33.4833C17 32.2447 17.492 31.0568 18.3678 30.1809L24.7011 23.8423L24.7029 23.844Z" stroke="black" stroke-linecap="round" stroke-linejoin="round"/>
<path d="M22.1416 26.4058L28.7465 33.0107" stroke="black" stroke-linecap="round" stroke-linejoin="round"/>
<path d="M24.7031 23.8443L31.308 30.4492L38.1407 27.2607C38.3959 27.1417 38.6186 26.9629 38.7901 26.7396C38.9615 26.5163 39.0766 26.2549 39.1256 25.9776C39.1746 25.7003 39.1561 25.4154 39.0715 25.1468C38.987 24.8782 38.839 24.634 38.64 24.4347L30.7194 16.5124C30.5201 16.3134 30.2759 16.1654 30.0073 16.0808C29.7388 15.9963 29.4538 15.9777 29.1765 16.0267C28.8992 16.0757 28.6378 16.1908 28.4145 16.3623C28.1912 16.5337 28.0124 16.7565 27.8935 17.0117L24.7031 23.8443Z" stroke="black" stroke-linecap="round" stroke-linejoin="round"/>
<path d="M32.5139 18.3027L30.4238 21.6052" stroke="black" stroke-linecap="round" stroke-linejoin="round"/>
<path d="M36.5591 22.3481L33.2549 24.4365" stroke="black" stroke-linecap="round" stroke-linejoin="round"/>
<circle cx="18.8462" cy="37.8462" r="2.34615" fill="#2156F2" stroke="#EBF0FC"/>
</g>
<defs>
<clipPath id="clip0_184_2902">
<rect width="56" height="56" fill="white"/>
</clipPath>
</defs>
</svg>
