<svg width="56" height="56" viewBox="0 0 56 56" fill="none" xmlns="http://www.w3.org/2000/svg">
<g clip-path="url(#clip0_184_2935)">
<circle cx="28" cy="28" r="28" fill="#EBF0FC"/>
<path d="M19.1193 40.0001C19.9466 40.0001 20.7401 39.639 21.3251 38.9963C21.91 38.3536 22.2387 37.4819 22.2387 36.573C22.2387 35.6641 21.91 34.7924 21.3251 34.1498C20.7401 33.5071 19.9466 33.146 19.1193 33.146C18.292 33.146 17.4986 33.5071 16.9136 34.1498C16.3286 34.7924 16 35.6641 16 36.573C16 37.4819 16.3286 38.3536 16.9136 38.9963C17.4986 39.639 18.292 40.0001 19.1193 40.0001Z" stroke="black" stroke-linecap="round" stroke-linejoin="round"/>
<path d="M33.1565 35.7164C33.9838 35.7164 34.7772 35.3553 35.3622 34.7126C35.9472 34.0699 36.2758 33.1983 36.2758 32.2893C36.2758 31.3804 35.9472 30.5088 35.3622 29.8661C34.7772 29.2234 33.9838 28.8623 33.1565 28.8623C32.3292 28.8623 31.5357 29.2234 30.9507 29.8661C30.3658 30.5088 30.0371 31.3804 30.0371 32.2893C30.0371 33.1983 30.3658 34.0699 30.9507 34.7126C31.5357 35.3553 32.3292 35.7164 33.1565 35.7164Z" stroke="black" stroke-linecap="round" stroke-linejoin="round"/>
<path d="M36.2753 31.5941V16.9305C36.2749 16.7873 36.2471 16.6461 36.1939 16.5178C36.1408 16.3896 36.0637 16.2777 35.9687 16.1909C35.8737 16.1041 35.7633 16.0447 35.6461 16.0173C35.5289 15.9898 35.4079 15.9951 35.2927 16.0327L22.8154 20.1849C22.6505 20.2382 22.5047 20.3548 22.4005 20.517C22.2962 20.6792 22.2392 20.8779 22.2383 21.0827V36.27" stroke="black" stroke-linecap="round" stroke-linejoin="round"/>
<path d="M22.2383 25.983L36.2753 21.3071" stroke="black" stroke-linecap="round" stroke-linejoin="round"/>
<path d="M37 18.5C38.3807 18.5 39.5 17.3807 39.5 16C39.5 14.6193 38.3807 13.5 37 13.5C35.6193 13.5 34.5 14.6193 34.5 16C34.5 17.3807 35.6193 18.5 37 18.5Z" fill="#2156F2" stroke="#EBF0FC"/>
</g>
<defs>
<clipPath id="clip0_184_2935">
<rect width="56" height="56" fill="white"/>
</clipPath>
</defs>
</svg>
