<svg width="56" height="56" viewBox="0 0 56 56" fill="none" xmlns="http://www.w3.org/2000/svg">
<g clip-path="url(#clip0_184_2943)">
<circle cx="28" cy="28" r="28" fill="#EBF0FC"/>
<path d="M25.4997 26.3333C26.6047 26.3333 27.6645 25.8943 28.446 25.1129C29.2274 24.3315 29.6663 23.2717 29.6663 22.1667C29.6663 21.0616 29.2274 20.0018 28.446 19.2204C27.6645 18.439 26.6047 18 25.4997 18C24.3946 18 23.3348 18.439 22.5534 19.2204C21.772 20.0018 21.333 21.0616 21.333 22.1667C21.333 23.2717 21.772 24.3315 22.5534 25.1129C23.3348 25.8943 24.3946 26.3333 25.4997 26.3333Z" stroke="black" stroke-linecap="round" stroke-linejoin="round"/>
<path d="M18 38H33V37.0966C32.9893 36.089 32.7761 35.0939 32.3732 34.1703C31.9702 33.2468 31.3856 32.4136 30.6543 31.7205C29.9229 31.0274 29.0596 30.4884 28.1157 30.1355C27.1719 29.7827 26.1667 29.6232 25.16 29.6666C23.2438 29.7576 21.4349 30.5777 20.1037 31.959C18.7726 33.3404 18.02 35.1784 18 37.0966V38Z" stroke="black" stroke-linecap="round" stroke-linejoin="round"/>
<path d="M31.2139 26.3333C32.3189 26.3333 33.3787 25.8943 34.1601 25.1129C34.9415 24.3315 35.3805 23.2717 35.3805 22.1667C35.3805 21.0616 34.9415 20.0018 34.1601 19.2204C33.3787 18.439 32.3189 18 31.2139 18" stroke="black" stroke-linecap="round" stroke-linejoin="round"/>
<path d="M35.3809 38.0001H38.7142V37.0968C38.6964 35.4094 38.1114 33.7771 37.0533 32.4626C35.9951 31.1481 34.5255 30.2279 32.8809 29.8501" stroke="black" stroke-linecap="round" stroke-linejoin="round"/>
<circle cx="17" cy="38" r="2.5" fill="#2156F2" stroke="#EBF0FC"/>
</g>
<defs>
<clipPath id="clip0_184_2943">
<rect width="56" height="56" fill="white"/>
</clipPath>
</defs>
</svg>
