<svg width="56" height="56" viewBox="0 0 56 56" fill="none" xmlns="http://www.w3.org/2000/svg">
<g clip-path="url(#clip0_184_2704)">
<circle cx="28" cy="28" r="28" fill="#EBF0FC"/>
<path d="M15 37.3334V25.938C15 25.3857 15.4477 24.938 16 24.938H31.8606C32.4129 24.938 32.8606 25.3857 32.8606 25.938V37.3334C32.8606 37.8857 32.4129 38.3334 31.8606 38.3334H21.8639C21.5987 38.3334 21.3443 38.4388 21.1568 38.6263L18.969 40.8141L17.2848 38.7088C17.095 38.4715 16.8077 38.3334 16.5039 38.3334H16C15.4477 38.3334 15 37.8857 15 37.3334Z" fill="#EBF0FC" stroke="#000F3D" stroke-linejoin="round"/>
<path d="M41.791 29.3955V18C41.791 17.4477 41.3433 17 40.791 17H24.9304C24.3781 17 23.9304 17.4477 23.9304 18V29.3955C23.9304 29.9477 24.3781 30.3955 24.9304 30.3955H34.9271C35.1924 30.3955 35.4467 30.5008 35.6342 30.6884L37.822 32.8761L39.5063 30.7708C39.696 30.5335 39.9833 30.3955 40.2871 30.3955H40.791C41.3433 30.3955 41.791 29.9477 41.791 29.3955Z" fill="#EBF0FC" stroke="#000F3D" stroke-linejoin="round"/>
<path d="M30.178 20.8402C29.9626 20.8402 29.788 21.0148 29.788 21.2302C29.788 21.4456 29.9626 21.6202 30.178 21.6202H32.9092C32.9979 21.6202 33.0657 21.6959 33.055 21.7815C32.8202 23.6597 31.7395 25.2096 29.7901 26.3058C29.5595 26.4354 29.4813 26.7372 29.6353 26.9562C29.7596 27.1329 29.9961 27.1939 30.1878 27.0899C32.7042 25.7243 33.8309 23.673 33.9725 21.393C33.9916 21.0866 33.7408 20.8402 33.438 20.8402H30.178ZM37.748 23.9102C37.748 23.6948 37.5734 23.5202 37.358 23.5202H36.458C36.3751 23.5202 36.308 23.453 36.308 23.3702V20.3402C36.308 20.0861 36.102 19.8802 35.848 19.8802C35.5939 19.8802 35.388 20.0861 35.388 20.3402V28.4902C35.388 28.7442 35.5939 28.9502 35.848 28.9502C36.102 28.9502 36.308 28.7442 36.308 28.4902V24.4502C36.308 24.3673 36.3751 24.3002 36.458 24.3002H37.358C37.5734 24.3002 37.748 24.1256 37.748 23.9102Z" fill="#000F3D" stroke="#000F3D" stroke-width="0.1"/>
<circle cx="42" cy="17" r="2.5" fill="#2156F2" stroke="#EBF0FC"/>
</g>
<defs>
<clipPath id="clip0_184_2704">
<rect width="56" height="56" fill="white"/>
</clipPath>
</defs>
</svg>
