<svg width="56" height="56" viewBox="0 0 56 56" fill="none" xmlns="http://www.w3.org/2000/svg">
<g clip-path="url(#clip0_184_2825)">
<circle cx="28" cy="28" r="28" fill="#EBF0FC"/>
<path d="M15 37.3334V25.938C15 25.3857 15.4477 24.938 16 24.938H31.8606C32.4129 24.938 32.8606 25.3857 32.8606 25.938V37.3334C32.8606 37.8857 32.4129 38.3334 31.8606 38.3334H21.8639C21.5987 38.3334 21.3443 38.4388 21.1568 38.6263L18.969 40.8141L17.2848 38.7088C17.095 38.4715 16.8077 38.3334 16.5039 38.3334H16C15.4477 38.3334 15 37.8857 15 37.3334Z" fill="#EBF0FC" stroke="#000F3D" stroke-linejoin="round"/>
<path d="M41.791 29.3955V18C41.791 17.4477 41.3433 17 40.791 17H24.9304C24.3781 17 23.9304 17.4477 23.9304 18V29.3955C23.9304 29.9477 24.3781 30.3955 24.9304 30.3955H34.9271C35.1924 30.3955 35.4467 30.5008 35.6342 30.6884L37.822 32.8761L39.5063 30.7708C39.696 30.5335 39.9833 30.3955 40.2871 30.3955H40.791C41.3433 30.3955 41.791 29.9477 41.791 29.3955Z" fill="#EBF0FC" stroke="#000F3D" stroke-linejoin="round"/>
<path d="M30.5375 28.744V28.716H35.9345C35.951 28.9838 36.1735 29.196 36.4455 29.196C36.7283 29.196 36.9575 28.9667 36.9575 28.684V26.402C36.9575 25.8221 36.4874 25.352 35.9075 25.352H30.6115C30.0316 25.352 29.5615 25.8221 29.5615 26.402V28.744C29.5615 29.0135 29.78 29.232 30.0495 29.232C30.319 29.232 30.5375 29.0135 30.5375 28.744ZM35.9335 26.382V27.848H30.5375V26.382C30.5375 26.2991 30.6047 26.232 30.6875 26.232H35.7835C35.8664 26.232 35.9335 26.2991 35.9335 26.382ZM30.1155 23.696C29.8824 23.696 29.6935 23.8849 29.6935 24.118C29.6935 24.351 29.8824 24.54 30.1155 24.54H36.3675C36.6006 24.54 36.7895 24.351 36.7895 24.118C36.7895 23.8849 36.6006 23.696 36.3675 23.696H30.1155ZM30.1155 22.064C29.8824 22.064 29.6935 22.2529 29.6935 22.486C29.6935 22.719 29.8824 22.908 30.1155 22.908H36.3675C36.6006 22.908 36.7895 22.719 36.7895 22.486C36.7895 22.2529 36.6006 22.064 36.3675 22.064H30.1155ZM28.2915 20.384C28.0452 20.384 27.8455 20.5836 27.8455 20.83C27.8455 21.0763 28.0452 21.276 28.2915 21.276H38.2635C38.5098 21.276 38.7095 21.0763 38.7095 20.83C38.7095 20.5836 38.5098 20.384 38.2635 20.384H28.2915ZM30.3015 18.764C30.0718 18.764 29.8855 18.9502 29.8855 19.18C29.8855 19.4097 30.0718 19.596 30.3015 19.596H36.2055C36.4353 19.596 36.6215 19.4097 36.6215 19.18C36.6215 18.9502 36.4353 18.764 36.2055 18.764H30.3015Z" fill="#000F3D" stroke="#000F3D" stroke-width="0.1"/>
<circle cx="42" cy="17" r="2.5" fill="#2156F2" stroke="#EBF0FC"/>
</g>
<defs>
<clipPath id="clip0_184_2825">
<rect width="56" height="56" fill="white"/>
</clipPath>
</defs>
</svg>
