<svg width="56" height="56" viewBox="0 0 56 56" fill="none" xmlns="http://www.w3.org/2000/svg">
<g clip-path="url(#clip0_184_2837)">
<circle cx="28" cy="28" r="28" fill="#EBF0FC"/>
<path d="M39.0769 17H16.9231C16.6783 17 16.4435 17.0973 16.2704 17.2704C16.0973 17.4435 16 17.6783 16 17.9231V32.6923C16 32.9371 16.0973 33.1719 16.2704 33.345C16.4435 33.5181 16.6783 33.6154 16.9231 33.6154H39.0769C39.3217 33.6154 39.5565 33.5181 39.7296 33.345C39.9027 33.1719 40 32.9371 40 32.6923V17.9231C40 17.6783 39.9027 17.4435 39.7296 17.2704C39.5565 17.0973 39.3217 17 39.0769 17Z" stroke="black" stroke-linecap="round" stroke-linejoin="round"/>
<path d="M26.1538 33.6152L24.3076 38.2306" stroke="black" stroke-linecap="round" stroke-linejoin="round"/>
<path d="M29.8457 33.6152L31.6919 38.2306" stroke="black" stroke-linecap="round" stroke-linejoin="round"/>
<path d="M22.4619 38.231H33.5388" stroke="black" stroke-linecap="round" stroke-linejoin="round"/>
<path d="M23.3841 23L20.1533 25.7692L22.9226 28.0769" stroke="black" stroke-linecap="round" stroke-linejoin="round"/>
<path d="M33.0768 23.4614L35.846 25.7691L32.6152 28.5383" stroke="black" stroke-linecap="round" stroke-linejoin="round"/>
<path d="M26.6152 29.4615L29.3845 21.1538" stroke="black" stroke-linecap="round" stroke-linejoin="round"/>
<circle cx="40" cy="17" r="2.5" fill="#2156F2" stroke="#EBF0FC"/>
</g>
<defs>
<clipPath id="clip0_184_2837">
<rect width="56" height="56" fill="white"/>
</clipPath>
</defs>
</svg>
