<svg width="56" height="56" viewBox="0 0 56 56" fill="none" xmlns="http://www.w3.org/2000/svg">
<g clip-path="url(#clip0_184_2877)">
<circle cx="28" cy="28" r="28" fill="#EBF0FC"/>
<path d="M25.9655 36.4511C23.2573 39.177 18.6551 40.0797 16 37.3538C19.5401 33.6898 16 31.9197 18.6551 29.2646C19.1213 28.7453 19.6885 28.3265 20.3221 28.0338C20.9556 27.7411 21.6422 27.5807 22.3398 27.5623C23.0375 27.544 23.7316 27.6681 24.3796 27.927C25.0277 28.186 25.6161 28.5744 26.109 29.0685C26.6019 29.5625 26.9889 30.1519 27.2462 30.8006C27.5036 31.4493 27.626 32.1437 27.6059 32.8413C27.5859 33.5389 27.4238 34.2251 27.1295 34.8579C26.8353 35.4908 26.4151 36.0569 25.8946 36.5219L25.9655 36.4511Z" stroke="black" stroke-linecap="round" stroke-linejoin="round"/>
<path d="M23.4258 27.647L32.816 17.1753C34.1506 15.6743 36.5596 15.5999 37.9845 17.016C39.4006 18.4409 39.3263 20.85 37.8252 22.1846L27.458 31.4686" stroke="black" stroke-linecap="round" stroke-linejoin="round"/>
<circle cx="39" cy="17" r="2.5" fill="#2156F2" stroke="#EBF0FC"/>
</g>
<defs>
<clipPath id="clip0_184_2877">
<rect width="56" height="56" fill="white"/>
</clipPath>
</defs>
</svg>
