<svg width="56" height="56" viewBox="0 0 56 56" fill="none" xmlns="http://www.w3.org/2000/svg">
<g clip-path="url(#clip0_184_2887)">
<circle cx="28" cy="28" r="28" fill="#EBF0FC"/>
<path d="M28 38C30.9174 38 33.7153 36.8411 35.7782 34.7782C37.8411 32.7153 39 29.9174 39 27C39 24.0826 37.8411 21.2847 35.7782 19.2218C33.7153 17.1589 30.9174 16 28 16C25.0826 16 22.2847 17.1589 20.2218 19.2218C18.1589 21.2847 17 24.0826 17 27C17 29.9174 18.1589 32.7153 20.2218 34.7782C22.2847 36.8411 25.0826 38 28 38Z" stroke="black" stroke-linecap="round" stroke-linejoin="round"/>
<path d="M28 16V38" stroke="black" stroke-linecap="round" stroke-linejoin="round"/>
<path d="M19.708 34.2262C20.9476 33.4711 21.9721 32.4097 22.683 31.1442C23.3938 29.8787 23.7672 28.4516 23.7672 27.0001C23.7672 25.5486 23.3938 24.1215 22.683 22.856C21.9721 21.5905 20.9476 20.5291 19.708 19.7739" stroke="black" stroke-linecap="round" stroke-linejoin="round"/>
<path d="M36.2926 19.7739C35.053 20.5291 34.0286 21.5905 33.3177 22.856C32.6068 24.1215 32.2334 25.5486 32.2334 27.0001C32.2334 28.4516 32.6068 29.8787 33.3177 31.1442C34.0286 32.4097 35.053 33.4711 36.2926 34.2262" stroke="black" stroke-linecap="round" stroke-linejoin="round"/>
<circle cx="27.8333" cy="37.8333" r="2.33333" fill="#2156F2" stroke="#EBF0FC"/>
</g>
<defs>
<clipPath id="clip0_184_2887">
<rect width="56" height="56" fill="white"/>
</clipPath>
</defs>
</svg>
